<svg xmlns="http://www.w3.org/2000/svg" version="1.1" width="1189mm" height="690mm" viewBox="0 0 1189 690"><defs>
<marker id="arw" viewBox="0 0 10 10" refX="10" refY="5" markerWidth="3.4"
        markerHeight="3.4" orient="auto-start-reverse" markerUnits="userSpaceOnUse">
  <path d="M0,1.4 L10,5 L0,8.6 z" fill="#1b1b1b"/>
</marker>
<style>
  text { font-family: "Helvetica Neue", Helvetica, Arial, sans-serif; fill:#1b1b1b; }
  .obj  { fill:none; stroke:#1b1b1b; stroke-width:0.55; }
  .hid  { fill:none; stroke:#7a7a7a; stroke-width:0.35; stroke-dasharray:2.6 1.6; }
  .phan { fill:none; stroke:#9a9a9a; stroke-width:0.32; stroke-dasharray:7 1.6 1.2 1.6; }
  .led  { fill:none; stroke:#9a9a9a; stroke-width:0.3; }
  .ctr  { fill:none; stroke:#b03a3a; stroke-width:0.3;  stroke-dasharray:9 1.8 1.6 1.8; }
  .dim  { fill:none; stroke:#1b1b1b; stroke-width:0.3; }
  .ext  { fill:none; stroke:#1b1b1b; stroke-width:0.25; }
  .traj { fill:none; stroke:#4a6fa5; stroke-width:0.35; stroke-dasharray:5 2; }
  .bal  { fill:#ffffff; stroke:#1b1b1b; stroke-width:0.45; }
  .dtx  { font-size:3.1px; }
  .balt { font-size:4.4px; font-weight:600; }
  .note { font-size:3.4px; }
  .lbl  { font-size:4.6px; font-weight:600; letter-spacing:0.6px; }
  .blk  { font-size:6.4px; font-weight:700; letter-spacing:1.4px; fill:#4a6fa5; }
  .ttl  { font-size:9px;   font-weight:700; letter-spacing:1px; }
  .sub  { font-size:4.4px; fill:#555; }
  .frame{ fill:none; stroke:#1b1b1b; stroke-width:0.5; }
  .tb   { fill:none; stroke:#1b1b1b; stroke-width:0.35; }
</style>
</defs>
<rect x="0" y="0" width="1189" height="690" fill="#ffffff"/>
<rect class="frame" x="15" y="15" width="1159" height="660"/>
<g id="FRONT-MODULE" transform="translate(90,122)">
<text class="blk" x="0" y="-46" text-anchor="start">FRONT MODULE</text>
<text class="lbl" x="0" y="-34" text-anchor="start">from BEHIND (mirrored) - one printed part</text>
<g id="fm-body">
<path class="obj" d="M3,166 V110 A107,107 0 0 1 217,110 V166 Z"/>
<path class="phan" d="M3,166 V110 A107,107 0 0 1 217,110 V166 Z"/>
<path class="obj" d="M10.5,110 A99.5,99.5 0 0 1 209.5,110 Z"/>
<path class="obj" d="M8.5,110 A101.5,101.5 0 0 1 211.5,110 Z"/>
<path class="hid" d="M12,110 A98,98 0 0 1 208,110 Z"/>
<path class="obj" d="M65.52,132.46 H154.48 A1,1 0 0 1 155.48,133.46 V164 A1,1 0 0 1 154.48,165 H65.52 A1,1 0 0 1 64.52,164 V133.46 A1,1 0 0 1 65.52,132.46 Z"/>
<path class="hid" d="M70,137.23 H150 A2,2 0 0 1 152,139.23 V158.23 A2,2 0 0 1 150,160.23 H70 A2,2 0 0 1 68,158.23 V139.23 A2,2 0 0 1 70,137.23 Z"/>
<path class="obj" d="M3,112 H55 A3,3 0 0 1 58,115 V162 A3,3 0 0 1 55,165 H3 A3,3 0 0 1 0,162 V115 A3,3 0 0 1 3,112 Z"/>
<path class="obj" d="M6,116 H52 A2,2 0 0 1 54,118 V159 A2,2 0 0 1 52,161 H6 A2,2 0 0 1 4,159 V118 A2,2 0 0 1 6,116 Z"/>
<circle class="hid" cx="29" cy="138.5" r="20"/>
<circle class="obj" cx="7" cy="119" r="1.4"/>
<circle class="obj" cx="7" cy="158" r="1.4"/>
<circle class="obj" cx="51" cy="119" r="1.4"/>
<circle class="obj" cx="51" cy="158" r="1.4"/>
<line class="obj" x1="0" y1="138.5" x2="-16" y2="138.5"/>
<line class="obj" x1="58" y1="138.5" x2="74" y2="138.5"/>
<path class="obj" d="M165,112 H217 A3,3 0 0 1 220,115 V162 A3,3 0 0 1 217,165 H165 A3,3 0 0 1 162,162 V115 A3,3 0 0 1 165,112 Z"/>
<path class="obj" d="M168,116 H214 A2,2 0 0 1 216,118 V159 A2,2 0 0 1 214,161 H168 A2,2 0 0 1 166,159 V118 A2,2 0 0 1 168,116 Z"/>
<circle class="hid" cx="191" cy="138.5" r="20"/>
<circle class="obj" cx="169" cy="119" r="1.4"/>
<circle class="obj" cx="169" cy="158" r="1.4"/>
<circle class="obj" cx="213" cy="119" r="1.4"/>
<circle class="obj" cx="213" cy="158" r="1.4"/>
<line class="obj" x1="162" y1="138.5" x2="146" y2="138.5"/>
<line class="obj" x1="220" y1="138.5" x2="236" y2="138.5"/>
<path class="obj" d="M55,117.46 H165 A1,1 0 0 1 166,118.46 V130.46 A1,1 0 0 1 165,131.46 H55 A1,1 0 0 1 54,130.46 V118.46 A1,1 0 0 1 55,117.46 Z"/>
<circle class="hid" cx="60.5" cy="124.46" r="1.25"/>
<circle class="phan" cx="60.5" cy="124.46" r="2.25"/>
<circle class="hid" cx="93.5" cy="124.46" r="1.25"/>
<circle class="phan" cx="93.5" cy="124.46" r="2.25"/>
<circle class="hid" cx="126.5" cy="124.46" r="1.25"/>
<circle class="phan" cx="126.5" cy="124.46" r="2.25"/>
<circle class="hid" cx="159.5" cy="124.46" r="1.25"/>
<circle class="phan" cx="159.5" cy="124.46" r="2.25"/>
</g>
<g id="fm-dims">
<line class="ctr" x1="110" y1="-10" x2="110" y2="176"/>
<line class="ext" x1="0" y1="170" x2="0" y2="198"/><line class="ext" x1="220" y1="170" x2="220" y2="198"/><line class="dim" x1="0" y1="196" x2="220" y2="196" marker-start="url(#arw)" marker-end="url(#arw)"/><text class="dtx" x="110" y="194.6" text-anchor="middle">214</text>
<line class="ext" x1="80" y1="3" x2="-24" y2="3"/><line class="ext" x1="80" y1="166" x2="-24" y2="166"/><line class="dim" x1="-22" y1="3" x2="-22" y2="166" marker-start="url(#arw)" marker-end="url(#arw)"/><text class="dtx" x="-23.4" y="84.5" text-anchor="middle" transform="rotate(-90 -23.4 84.5)">163</text>
<line class="dim" x1="38.36" y1="41.345" x2="20.36" y2="27.345" marker-start="url(#arw)"/><line class="dim" x1="20.36" y1="27.345" x2="14.36" y2="27.345"/><text class="dtx" x="13.16" y="28.445" text-anchor="end">diffuser pocket R99.5 x 3.2 deep</text>
<line class="dim" x1="67.37" y1="18.65" x2="53.37" y2="-7.35" marker-start="url(#arw)"/><line class="dim" x1="53.37" y1="-7.35" x2="47.37" y2="-7.35"/><text class="dtx" x="46.17" y="-6.25" text-anchor="end">cavity wall 2, R101.5</text>
<line class="dim" x1="168.8" y1="32.58" x2="202.8" y2="14.58" marker-start="url(#arw)"/><line class="dim" x1="202.8" y1="14.58" x2="208.8" y2="14.58"/><text class="dtx" x="210" y="15.68" text-anchor="start">SK6812 strip seats at R98</text>
<line class="dim" x1="155.48" y1="165" x2="207.48" y2="191" marker-start="url(#arw)"/><line class="dim" x1="207.48" y1="191" x2="213.48" y2="191"/><text class="dtx" x="214.68" y="192.1" text-anchor="start">matrix tray pocket 91 x 32.5 x 2 (0.2 interference)</text>
<line class="dim" x1="211.59" y1="117.91" x2="245.59" y2="87.91" marker-start="url(#arw)"/><line class="dim" x1="245.59" y1="87.91" x2="251.59" y2="87.91"/><text class="dtx" x="252.79" y="89.01" text-anchor="start">Seeed enclosed speaker 50 x 45 x 22, seat + 4x fixing (?)</text>
<line class="dim" x1="55" y1="124.46" x2="33" y2="154.46" marker-start="url(#arw)"/><line class="dim" x1="33" y1="154.46" x2="27" y2="154.46"/><text class="dtx" x="25.8" y="155.56" text-anchor="end">mic flex channel 2 deep, 1 gasket land per port</text>
<line class="dim" x1="3" y1="137" x2="-17" y2="103" marker-start="url(#arw)"/><line class="dim" x1="-17" y1="103" x2="-23" y2="103"/><text class="dtx" x="-24.2" y="104.1" text-anchor="end">4.5 of edge runs in the dome groove</text>
<line class="dim" x1="140" y1="166" x2="180" y2="188" marker-start="url(#arw)"/><line class="dim" x1="180" y1="188" x2="186" y2="188"/><text class="dtx" x="187.2" y="189.1" text-anchor="start">bottom edge lands on the bottom plate = the datum</text>
</g>
</g>
<g id="SECTION-AA" transform="translate(400,122)">
<text class="blk" x="0" y="-46" text-anchor="start">SECTION A-A</text>
<text class="lbl" x="0" y="-34" text-anchor="start">on the centreline, front at left</text>
<g id="sec-dome">
<path class="obj" d="M4,0 H60 A4,4 0 0 1 64,4 V166 A4,4 0 0 1 60,170 H4 A4,4 0 0 1 0,166 V4 A4,4 0 0 1 4,0 Z"/>
<path class="obj" d="M4,2.5 H60 A1.5,1.5 0 0 1 61.5,4 V166 A1.5,1.5 0 0 1 60,167.5 H4 A1.5,1.5 0 0 1 2.5,166 V4 A1.5,1.5 0 0 1 4,2.5 Z"/>
<rect class="obj" x="0" y="0" width="2" height="7.5"/>
<rect class="obj" x="6.4" y="0" width="2.5" height="7.5"/>
</g>
<g id="sec-front-module">
<rect class="obj" x="2" y="3" width="4" height="163"/>
<rect class="obj" x="6" y="12" width="3" height="98"/>
<rect class="hid" x="21.2" y="12" width="3" height="98"/>
<line class="obj" x1="24.2" y1="12" x2="24.2" y2="110"/>
<rect class="hid" x="6" y="132.46" width="14.8" height="32.54"/>
<rect class="obj" x="6" y="118.46" width="2" height="12"/>
</g>
<g id="sec-internals">
<rect class="obj" x="2.8" y="166" width="58.4" height="4"/>
<rect class="hid" x="37.5" y="73" width="24" height="93"/>
<rect class="hid" x="41.5" y="59" width="20" height="8"/>
<rect class="hid" x="28" y="144" width="31.5" height="22"/>
<rect class="obj" x="49.5" y="157" width="12" height="9"/>
<rect class="hid" x="53.5" y="160" width="4" height="6"/>
<rect class="hid" x="54" y="161" width="3" height="9"/>
</g>
<g id="sec-dims">
<line class="ext" x1="0" y1="0" x2="0" y2="-22"/><line class="ext" x1="64" y1="0" x2="64" y2="-22"/><line class="dim" x1="0" y1="-20" x2="64" y2="-20" marker-start="url(#arw)" marker-end="url(#arw)"/><text class="dtx" x="32" y="-21.4" text-anchor="middle">64</text>
<line class="ext" x1="64" y1="0" x2="88" y2="0"/><line class="ext" x1="64" y1="170" x2="88" y2="170"/><line class="dim" x1="86" y1="0" x2="86" y2="170" marker-start="url(#arw)" marker-end="url(#arw)"/><text class="dtx" x="84.6" y="85" text-anchor="middle" transform="rotate(-90 84.6 85)">170</text>
<line class="ext" x1="2" y1="12" x2="2" y2="2"/><line class="ext" x1="24.2" y1="12" x2="24.2" y2="2"/><line class="dim" x1="2" y1="4" x2="24.2" y2="4" marker-start="url(#arw)" marker-end="url(#arw)"/><text class="dtx" x="13.1" y="2.6" text-anchor="middle">22.2 front module</text>
<line class="dim" x1="9.2" y1="56.1" x2="21.2" y2="56.1" marker-start="url(#arw)" marker-end="url(#arw)"/><text class="dtx" x="15.2" y="54.7" text-anchor="middle">12 air</text>
<line class="dim" x1="24.2" y1="80.6" x2="54.2" y2="60.6" marker-start="url(#arw)"/><line class="dim" x1="54.2" y1="60.6" x2="60.2" y2="60.6"/><text class="dtx" x="61.4" y="61.7" text-anchor="start">clear of the UPS by 13.3</text>
<line class="dim" x1="37.5" y1="73" x2="63.5" y2="51" marker-start="url(#arw)"/><line class="dim" x1="63.5" y1="51" x2="69.5" y2="51"/><text class="dtx" x="70.7" y="52.1" text-anchor="start">UPS 3S board 60 x 93, STANDING</text>
<line class="dim" x1="41.5" y1="63" x2="17.5" y2="45" marker-start="url(#arw)"/><line class="dim" x1="17.5" y1="45" x2="11.5" y2="45"/><text class="dtx" x="10.3" y="46.1" text-anchor="end">TPA2016 on the REAR WALL - no floor left</text>
<line class="dim" x1="49.5" y1="157" x2="23.5" y2="183" marker-start="url(#arw)"/><line class="dim" x1="23.5" y1="183" x2="17.5" y2="183"/><text class="dtx" x="16.3" y="184.1" text-anchor="end">wall LUG 12 x 14 x 9 - screw comes up from below</text>
<line class="dim" x1="28" y1="144" x2="8" y2="118" marker-start="url(#arw)"/><line class="dim" x1="8" y1="118" x2="2" y2="118"/><text class="dtx" x="0.8" y="119.1" text-anchor="end">Flex bay 61.5 x 31.5 (envelope)</text>
</g>
</g>
<g id="BOTTOM-PLATE" transform="translate(600,132)">
<text class="blk" x="0" y="-36" text-anchor="start">BOTTOM PLATE</text>
<text class="lbl" x="0" y="-26" text-anchor="start">from above - the chassis: Flex + UPS + 6 fixings</text>
<g id="bp-body">
<path class="obj" d="M2.5,0 H211.9 A2.5,2.5 0 0 1 214.4,2.5 V55.9 A2.5,2.5 0 0 1 211.9,58.4 H2.5 A2.5,2.5 0 0 1 0,55.9 V2.5 A2.5,2.5 0 0 1 2.5,0 Z"/>
<rect class="hid" x="1.2" y="1.2" width="50" height="22"/>
<rect class="hid" x="163.2" y="1.2" width="50" height="22"/>
<rect class="phan" x="61.72" y="1.2" width="90.96" height="14.8"/>
<rect class="hid" x="77.2" y="34.7" width="60" height="24"/>
<rect class="hid" x="13.7" y="25.2" width="61.5" height="31.5"/>
<circle class="obj" cx="5.7" cy="31.2" r="1.7"/>
<circle class="obj" cx="5.7" cy="31.2" r="3"/>
<circle class="obj" cx="208.7" cy="31.2" r="1.7"/>
<circle class="obj" cx="208.7" cy="31.2" r="3"/>
<circle class="obj" cx="5.7" cy="51.2" r="1.7"/>
<circle class="obj" cx="5.7" cy="51.2" r="3"/>
<circle class="obj" cx="208.7" cy="51.2" r="1.7"/>
<circle class="obj" cx="208.7" cy="51.2" r="3"/>
<circle class="obj" cx="42.2" cy="52.7" r="1.7"/>
<circle class="obj" cx="42.2" cy="52.7" r="3"/>
<circle class="obj" cx="172.2" cy="52.7" r="1.7"/>
<circle class="obj" cx="172.2" cy="52.7" r="3"/>
<circle class="phan" cx="16" cy="16" r="6"/>
<circle class="phan" cx="16" cy="42.4" r="6"/>
<circle class="phan" cx="198.4" cy="16" r="6"/>
<circle class="phan" cx="198.4" cy="42.4" r="6"/>
</g>
<g id="bp-dims">
<line class="ext" x1="0" y1="0" x2="0" y2="-14"/><line class="ext" x1="214.4" y1="0" x2="214.4" y2="-14"/><line class="dim" x1="0" y1="-12" x2="214.4" y2="-12" marker-start="url(#arw)" marker-end="url(#arw)"/><text class="dtx" x="107.2" y="-13.4" text-anchor="middle">214.4</text>
<line class="ext" x1="0" y1="0" x2="-16" y2="0"/><line class="ext" x1="0" y1="58.4" x2="-16" y2="58.4"/><line class="dim" x1="-14" y1="0" x2="-14" y2="58.4" marker-start="url(#arw)" marker-end="url(#arw)"/><text class="dtx" x="-15.4" y="29.2" text-anchor="middle" transform="rotate(-90 -15.4 29.2)">58.4</text>
<line class="dim" x1="13.7" y1="25.2" x2="-2.3" y2="-2.8" marker-start="url(#arw)"/><line class="dim" x1="-2.3" y1="-2.8" x2="-8.3" y2="-2.8"/><text class="dtx" x="-9.5" y="-1.7" text-anchor="end">Flex bay 61.5 x 31.5 - board size not published, MEASURE</text>
<line class="dim" x1="107.2" y1="34.7" x2="77.2" y2="20.7" marker-start="url(#arw)"/><line class="dim" x1="77.2" y1="20.7" x2="71.2" y2="20.7"/><text class="dtx" x="70" y="21.8" text-anchor="end">UPS 3S 60 x 24 footprint, board STANDS 93 tall</text>
<line class="dim" x1="8.7" y1="31.2" x2="28.7" y2="75.2" marker-start="url(#arw)"/><line class="dim" x1="28.7" y1="75.2" x2="34.7" y2="75.2"/><text class="dtx" x="35.9" y="76.3" text-anchor="start">6x Ø3.4 thru, Ø6 c'bore 2 deep</text>
<line class="dim" x1="16" y1="48.4" x2="-2" y2="70.4" marker-start="url(#arw)"/><line class="dim" x1="-2" y1="70.4" x2="-8" y2="70.4"/><text class="dtx" x="-9.2" y="71.5" text-anchor="end">4x Ø12 feet</text>
<text class="note" x="107.2" y="84.4" text-anchor="middle">dashed = what sits on it   phantom = what hangs over it</text>
</g>
</g>
<g id="DOME-UNDERSIDE" transform="translate(600,268)">
<text class="blk" x="0" y="-36" text-anchor="start">DOME UNDERSIDE</text>
<text class="lbl" x="0" y="-26" text-anchor="start">looking up into the dome</text>
<g id="du-body">
<path class="obj" d="M5,0 H215 A5,5 0 0 1 220,5 V59 A5,5 0 0 1 215,64 H5 A5,5 0 0 1 0,59 V5 A5,5 0 0 1 5,0 Z"/>
<path class="obj" d="M5,2.5 H215 A2.5,2.5 0 0 1 217.5,5 V59 A2.5,2.5 0 0 1 215,61.5 H5 A2.5,2.5 0 0 1 2.5,59 V5 A2.5,2.5 0 0 1 5,2.5 Z"/>
<path class="hid" d="M6.5,5.5 H213.5 A1,1 0 0 1 214.5,6.5 V57.5 A1,1 0 0 1 213.5,58.5 H6.5 A1,1 0 0 1 5.5,57.5 V6.5 A1,1 0 0 1 6.5,5.5 Z"/>
<rect class="obj" x="2.5" y="2" width="215" height="4.4"/>
<path class="obj" d="M3.5,27 H13.5 A1,1 0 0 1 14.5,28 V40 A1,1 0 0 1 13.5,41 H3.5 A1,1 0 0 1 2.5,40 V28 A1,1 0 0 1 3.5,27 Z"/>
<circle class="hid" cx="8.5" cy="34" r="2"/>
<path class="obj" d="M206.5,27 H216.5 A1,1 0 0 1 217.5,28 V40 A1,1 0 0 1 216.5,41 H206.5 A1,1 0 0 1 205.5,40 V28 A1,1 0 0 1 206.5,27 Z"/>
<circle class="hid" cx="211.5" cy="34" r="2"/>
<path class="obj" d="M3.5,47 H13.5 A1,1 0 0 1 14.5,48 V60 A1,1 0 0 1 13.5,61 H3.5 A1,1 0 0 1 2.5,60 V48 A1,1 0 0 1 3.5,47 Z"/>
<circle class="hid" cx="8.5" cy="54" r="2"/>
<path class="obj" d="M206.5,47 H216.5 A1,1 0 0 1 217.5,48 V60 A1,1 0 0 1 216.5,61 H206.5 A1,1 0 0 1 205.5,60 V48 A1,1 0 0 1 206.5,47 Z"/>
<circle class="hid" cx="211.5" cy="54" r="2"/>
<path class="obj" d="M39,49.5 H51 A1,1 0 0 1 52,50.5 V60.5 A1,1 0 0 1 51,61.5 H39 A1,1 0 0 1 38,60.5 V50.5 A1,1 0 0 1 39,49.5 Z"/>
<circle class="hid" cx="45" cy="55.5" r="2"/>
<path class="obj" d="M169,49.5 H181 A1,1 0 0 1 182,50.5 V60.5 A1,1 0 0 1 181,61.5 H169 A1,1 0 0 1 168,60.5 V50.5 A1,1 0 0 1 169,49.5 Z"/>
<circle class="hid" cx="175" cy="55.5" r="2"/>
</g>
<g id="du-dims">
<line class="ext" x1="0" y1="0" x2="0" y2="-14"/><line class="ext" x1="220" y1="0" x2="220" y2="-14"/><line class="dim" x1="0" y1="-12" x2="220" y2="-12" marker-start="url(#arw)" marker-end="url(#arw)"/><text class="dtx" x="110" y="-13.4" text-anchor="middle">220</text>
<line class="ext" x1="0" y1="0" x2="-16" y2="0"/><line class="ext" x1="0" y1="64" x2="-16" y2="64"/><line class="dim" x1="-14" y1="0" x2="-14" y2="64" marker-start="url(#arw)" marker-end="url(#arw)"/><text class="dtx" x="-15.4" y="32" text-anchor="middle" transform="rotate(-90 -15.4 32)">64</text>
<line class="dim" x1="5.5" y1="32" x2="-14.5" y2="56" marker-start="url(#arw)"/><line class="dim" x1="-14.5" y1="56" x2="-20.5" y2="56"/><text class="dtx" x="-21.7" y="57.1" text-anchor="end">3 continuous seating ledge, all round</text>
<line class="dim" x1="110" y1="6.4" x2="110" y2="36.4" marker-start="url(#arw)"/><line class="dim" x1="110" y1="36.4" x2="116" y2="36.4"/><text class="dtx" x="117.2" y="37.5" text-anchor="start">front groove 4.4 wide - module slides UP</text>
<text class="dtx" x="8.5" y="35.2" text-anchor="middle">1</text>
<text class="dtx" x="211.5" y="35.2" text-anchor="middle">2</text>
<text class="dtx" x="8.5" y="55.2" text-anchor="middle">3</text>
<text class="dtx" x="211.5" y="55.2" text-anchor="middle">4</text>
<text class="dtx" x="45" y="56.7" text-anchor="middle">5</text>
<text class="dtx" x="175" y="56.7" text-anchor="middle">6</text>
<line class="dim" x1="211.5" y1="34" x2="233.5" y2="8" marker-start="url(#arw)"/><line class="dim" x1="233.5" y1="8" x2="239.5" y2="8"/><text class="dtx" x="240.7" y="9.1" text-anchor="start">6x wall lug 12 x 14 x 9, Ø4 for M3 heat-set</text>
<text class="note" x="110" y="94" text-anchor="middle">no lug on the FRONT edge - the speakers own both corners and the tray owns the middle. It does not need one:</text>
<text class="note" x="110" y="99" text-anchor="middle">the plate's front edge is captured between the seating ledge and the front module's bottom edge.</text>
</g>
</g>
<g id="BOSS-LEGEND" transform="translate(836,300)">
<rect class="tb" x="0" y="0" width="98.14" height="67"/>
<text class="lbl" x="5" y="11" text-anchor="start">FIXING LUGS  M3 into heat-set inserts</text>
<circle class="bal" cx="9.6" cy="17.46" r="3.6"/>
<text class="dtx" x="9.6" y="18.96" text-anchor="middle">1</text>
<text class="note" x="17" y="18.96" text-anchor="start">x 8.5, depth 34   -   1 clear of speaker L</text>
<circle class="bal" cx="9.6" cy="25.46" r="3.6"/>
<text class="dtx" x="9.6" y="26.96" text-anchor="middle">2</text>
<text class="note" x="17" y="26.96" text-anchor="start">x 211.5, depth 34   -   1 clear of speaker R</text>
<circle class="bal" cx="9.6" cy="33.46" r="3.6"/>
<text class="dtx" x="9.6" y="34.96" text-anchor="middle">3</text>
<text class="note" x="17" y="34.96" text-anchor="start">x 8.5, depth 54   -   21 clear of speaker L</text>
<circle class="bal" cx="9.6" cy="41.46" r="3.6"/>
<text class="dtx" x="9.6" y="42.96" text-anchor="middle">4</text>
<text class="note" x="17" y="42.96" text-anchor="start">x 211.5, depth 54   -   21 clear of speaker R</text>
<circle class="bal" cx="9.6" cy="49.46" r="3.6"/>
<text class="dtx" x="9.6" y="50.96" text-anchor="middle">5</text>
<text class="note" x="17" y="50.96" text-anchor="start">x 45, depth 55.5   -   23.5 clear of speaker L</text>
<circle class="bal" cx="9.6" cy="57.46" r="3.6"/>
<text class="dtx" x="9.6" y="58.96" text-anchor="middle">6</text>
<text class="note" x="17" y="58.96" text-anchor="start">x 175, depth 55.5   -   23.5 clear of speaker R</text>
</g>
<g id="DETAIL-B" transform="translate(600,432)">
<text class="blk" x="0" y="-20" text-anchor="start">DETAIL B   slot joint   5:1</text>
<g id="det-b">
<rect class="obj" x="0" y="0" width="12.5" height="70"/>
<rect class="obj" x="12.5" y="0" width="25" height="10"/>
<rect class="obj" x="12.5" y="32" width="25" height="12.5"/>
<rect class="obj" x="15" y="10" width="85" height="20"/>
<line class="phan" x1="100" y1="10" x2="100" y2="30"/>
<line class="dim" x1="6.25" y1="56" x2="-9.75" y2="70" marker-start="url(#arw)"/><line class="dim" x1="-9.75" y1="70" x2="-15.75" y2="70"/><text class="dtx" x="-16.95" y="71.1" text-anchor="end">dome wall 2.5</text>
<line class="dim" x1="27.5" y1="0" x2="49.5" y2="-26" marker-start="url(#arw)"/><line class="dim" x1="49.5" y1="-26" x2="55.5" y2="-26"/><text class="dtx" x="56.7" y="-24.9" text-anchor="start">lip 5 x 2 covers the edge</text>
<line class="dim" x1="27.5" y1="44.5" x2="53.5" y2="64.5" marker-start="url(#arw)"/><line class="dim" x1="53.5" y1="64.5" x2="59.5" y2="64.5"/><text class="dtx" x="60.7" y="65.6" text-anchor="start">rib 5 x 2.5</text>
<line class="dim" x1="67.5" y1="30" x2="87.5" y2="64" marker-start="url(#arw)"/><line class="dim" x1="87.5" y1="64" x2="93.5" y2="64"/><text class="dtx" x="94.7" y="65.1" text-anchor="start">front module, 4 thk</text>
<line class="dim" x1="120" y1="10" x2="120" y2="32" marker-start="url(#arw)" marker-end="url(#arw)"/><text class="dtx" x="118.6" y="21" text-anchor="middle" transform="rotate(-90 118.6 21)">4.4 groove</text>
<line class="ext" x1="12.5" y1="0" x2="12.5" y2="-12"/><line class="ext" x1="37.5" y1="0" x2="37.5" y2="-12"/><line class="dim" x1="12.5" y1="-10" x2="37.5" y2="-10" marker-start="url(#arw)" marker-end="url(#arw)"/><text class="dtx" x="25" y="-11.4" text-anchor="middle">5</text>
<text class="note" x="0" y="86" text-anchor="start">module slides UP out of the page; 0.5 clearance on the wall</text>
</g>
</g>
<g id="DETAIL-C" transform="translate(836,432)">
<text class="blk" x="0" y="-62" text-anchor="start">DETAIL C   diffusion stack   5:1</text>
<g id="det-c">
<rect class="obj" x="0" y="0" width="20" height="85"/>
<rect class="obj" x="20" y="0" width="15" height="85"/>
<line class="hid" x1="36" y1="0" x2="36" y2="85"/>
<rect class="hid" x="96" y="0" width="15" height="85"/>
<rect class="obj" x="0" y="85" width="111" height="10"/>
<line class="dim" x1="10" y1="0" x2="10" y2="-20" marker-start="url(#arw)"/><line class="dim" x1="10" y1="-20" x2="16" y2="-20"/><text class="dtx" x="17.2" y="-18.9" text-anchor="start">facade 4</text>
<line class="dim" x1="27.5" y1="0" x2="27.5" y2="-30" marker-start="url(#arw)"/><line class="dim" x1="27.5" y1="-30" x2="33.5" y2="-30"/><text class="dtx" x="34.7" y="-28.9" text-anchor="start">opal acrylic 3 (?), in a 3.2 pocket</text>
<line class="dim" x1="66" y1="0" x2="66" y2="-40" marker-start="url(#arw)"/><line class="dim" x1="66" y1="-40" x2="72" y2="-40"/><text class="dtx" x="73.2" y="-38.9" text-anchor="start">air gap 12 (?)  TUNE ON A TEST PRINT</text>
<line class="dim" x1="103.5" y1="0" x2="103.5" y2="-50" marker-start="url(#arw)"/><line class="dim" x1="103.5" y1="-50" x2="109.5" y2="-50"/><text class="dtx" x="110.7" y="-48.9" text-anchor="start">SK6812 strip 3</text>
<line class="dim" x1="44.4" y1="95" x2="32.4" y2="117" marker-start="url(#arw)"/><line class="dim" x1="32.4" y1="117" x2="26.4" y2="117"/><text class="dtx" x="25.2" y="118.1" text-anchor="end">cavity wall 2, follows the arc</text>
<line class="dim" x1="0" y1="129" x2="111" y2="129" marker-start="url(#arw)" marker-end="url(#arw)"/><text class="dtx" x="55.5" y="127.6" text-anchor="middle">22.2 total</text>
</g>
</g>
<g id="NOTES" transform="translate(90,372)">
<text class="lbl" x="0" y="0" text-anchor="start">ASSEMBLY</text>
<text class="note" x="0" y="6.6" text-anchor="start">1   Front module slides UP into the dome's side grooves from below. Nothing retains it at this point.</text>
<text class="note" x="0" y="11.3" text-anchor="start">2   It seats against the lip; 4.5 mm of its edge is captured all round, with 0.5 sliding clearance.</text>
<text class="note" x="0" y="16" text-anchor="start">3   Bottom plate goes on. Its top face is the module's datum - the module's bottom edge lands on it and can no longer drop.</text>
<text class="note" x="0" y="20.7" text-anchor="start">4   Six M3 screws pull the bottom plate up into the dome bosses. No fastener touches the facade.</text>
<text class="lbl" x="0" y="30.7" text-anchor="start">NOTES</text>
<text class="note" x="0" y="37.3" text-anchor="start">a   ONE FRONT PIECE, YES - but the diffuser stays separate. You cannot print an even diffuser; the printed part is the frame and</text>
<text class="note" x="0" y="42" text-anchor="start">    the cavity, and the Glowforge-cut opal acrylic drops into a pocket from behind. Everything that must stay in register with</text>
<text class="note" x="0" y="46.7" text-anchor="start">    everything else - matrix aperture, grilles, mic ports, diffuser - is now on ONE part, so there are no stacked tolerances.</text>
<text class="note" x="0" y="51.4" text-anchor="start">b   The facade went 3 -> 4 mm. Two 50x45 sealed boxes on an unsupported 3 mm plate will flex and buzz; it is a baffle now, not a cover.</text>
<text class="note" x="0" y="56.1" text-anchor="start">    Ribs run from each baffle ring out to the perimeter for the same reason.</text>
<text class="note" x="0" y="60.8" text-anchor="start">c   AIR GAP IS A GUESS. 12 mm is ~0.7x the 16.7 mm LED pitch, the usual starting point for not seeing 48 dots through opal.</text>
<text class="note" x="0" y="65.5" text-anchor="start">    Test-print the crescent corner before committing - this is the one number most likely to need changing.</text>
<text class="note" x="0" y="70.2" text-anchor="start">d   FIXINGS ARE WALL LUGS, NOT FLOOR BOSSES. Each lug is a pad that projects inward off the dome wall with a blind heat-set hole; the</text>
<text class="note" x="0" y="74.9" text-anchor="start">    screw comes up through the bottom plate and grabs it. Lugs live at the perimeter where the plate needs support anyway, and they</text>
<text class="note" x="0" y="79.6" text-anchor="start">    cost no floor area - which matters, because the floor is fully spoken for. Clearances per lug are in the key beside the plan.</text>
<text class="note" x="0" y="84.3" text-anchor="start">e   NO LUG ON THE FRONT EDGE. The speaker bodies own both front corners and the tray owns the middle, so there is nowhere to put one.</text>
<text class="note" x="0" y="89" text-anchor="start">    It does not need one: the plate's front edge is captured between the seating ledge and the front module's bottom edge.</text>
<text class="note" x="0" y="93.7" text-anchor="start">f   TPA2016 moved to the REAR WALL at y=107. There is no floor left for it, and the speaker leads are shortest from there.</text>
<text class="note" x="0" y="98.4" text-anchor="start">    Bridge-tied outputs: do NOT common the two speakers' negatives (HARDWARE.md).</text>
</g>
<g id="TITLE-BLOCK" transform="translate(936,570)">
<rect class="tb" x="0" y="0" width="238" height="90"/>
<line class="tb" x1="0" y1="26" x2="238" y2="26"/>
<text class="ttl" x="6" y="12" text-anchor="start">SOUND MACHINE - INTERNALS</text>
<text class="sub" x="6" y="20" text-anchor="start">front module / fixings / chassis</text>
<line class="tb" x1="119" y1="26" x2="119" y2="42"/>
<text class="note" x="6" y="35.92" text-anchor="start">PROJECTION third angle</text>
<text class="note" x="125" y="35.92" text-anchor="start">ENVELOPE</text>
<line class="tb" x1="0" y1="42" x2="238" y2="42"/>
<line class="tb" x1="119" y1="42" x2="119" y2="58"/>
<text class="note" x="6" y="51.92" text-anchor="start">UNITS mm   SCALE 1:1 (details 5:1)</text>
<text class="note" x="125" y="51.92" text-anchor="start">220 W x 64 D x 170 H</text>
<line class="tb" x1="0" y1="58" x2="238" y2="58"/>
<line class="tb" x1="119" y1="58" x2="119" y2="74"/>
<text class="note" x="6" y="67.92" text-anchor="start">GENERATED BY 3d-print/gen_internals.py</text>
<text class="note" x="125" y="67.92" text-anchor="start">SHEET 2 of 3</text>
<line class="tb" x1="0" y1="74" x2="238" y2="74"/>
<line class="tb" x1="119" y1="74" x2="119" y2="90"/>
<text class="note" x="6" y="83.92" text-anchor="start">REFERENCE ONLY - not a released drawing</text>
<text class="note" x="125" y="83.92" text-anchor="start">REV A</text>
</g>
</svg>