<svg xmlns="http://www.w3.org/2000/svg" version="1.1" width="1189mm" height="650mm" viewBox="0 0 1189 650"><defs>
<marker id="arw" viewBox="0 0 10 10" refX="10" refY="5" markerWidth="3.4"
        markerHeight="3.4" orient="auto-start-reverse" markerUnits="userSpaceOnUse">
  <path d="M0,1.4 L10,5 L0,8.6 z" fill="#1b1b1b"/>
</marker>
<style>
  text { font-family: "Helvetica Neue", Helvetica, Arial, sans-serif; fill:#1b1b1b; }
  .obj  { fill:none; stroke:#1b1b1b; stroke-width:0.55; }
  .hid  { fill:none; stroke:#7a7a7a; stroke-width:0.35; stroke-dasharray:2.6 1.6; }
  .phan { fill:none; stroke:#9a9a9a; stroke-width:0.32; stroke-dasharray:7 1.6 1.2 1.6; }
  .led  { fill:none; stroke:#9a9a9a; stroke-width:0.3; }
  .ctr  { fill:none; stroke:#b03a3a; stroke-width:0.3;  stroke-dasharray:9 1.8 1.6 1.8; }
  .dim  { fill:none; stroke:#1b1b1b; stroke-width:0.3; }
  .ext  { fill:none; stroke:#1b1b1b; stroke-width:0.25; }
  .traj { fill:none; stroke:#4a6fa5; stroke-width:0.35; stroke-dasharray:5 2; }
  .bal  { fill:#ffffff; stroke:#1b1b1b; stroke-width:0.45; }
  .dtx  { font-size:3.1px; }
  .balt { font-size:4.4px; font-weight:600; }
  .note { font-size:3.4px; }
  .lbl  { font-size:4.6px; font-weight:600; letter-spacing:0.6px; }
  .blk  { font-size:6.4px; font-weight:700; letter-spacing:1.4px; fill:#4a6fa5; }
  .ttl  { font-size:9px;   font-weight:700; letter-spacing:1px; }
  .sub  { font-size:4.4px; fill:#555; }
  .frame{ fill:none; stroke:#1b1b1b; stroke-width:0.5; }
  .tb   { fill:none; stroke:#1b1b1b; stroke-width:0.35; }
</style>
</defs>
<rect x="0" y="0" width="1189" height="650" fill="#ffffff"/>
<rect class="frame" x="15" y="15" width="1159" height="620"/>
<g id="I2C-CHAIN" transform="translate(60,70)">
<text class="blk" x="0" y="-26" text-anchor="start">I2C DAISY CHAIN</text>
<text class="lbl" x="0" y="-16" text-anchor="start">one shared bus on GPIO5/6 - STEMMA QT, in physical routing order</text>
<path class="obj" d="M1.5,0 H94.5 A1.5,1.5 0 0 1 96,1.5 V28.5 A1.5,1.5 0 0 1 94.5,30 H1.5 A1.5,1.5 0 0 1 0,28.5 V1.5 A1.5,1.5 0 0 1 1.5,0 Z"/>
<text class="lbl" x="4" y="8.5" text-anchor="start">XIAO ESP32-S3</text>
<text class="note" x="4" y="16.5" text-anchor="start">D4 SDA / D5 SCL</text>
<line class="dim" x1="96" y1="15" x2="122" y2="15" marker-end="url(#arw)"/>
<text class="dtx" x="109" y="13" text-anchor="middle">hdrs</text>
<path class="obj" d="M123.5,0 H216.5 A1.5,1.5 0 0 1 218,1.5 V38.5 A1.5,1.5 0 0 1 216.5,40 H123.5 A1.5,1.5 0 0 1 122,38.5 V1.5 A1.5,1.5 0 0 1 123.5,0 Z"/>
<text class="lbl" x="126" y="8.5" text-anchor="start">ReSpeaker Flex</text>
<text class="note" x="126" y="16.5" text-anchor="start">AIC3104  0x18</text>
<text class="note" x="126" y="34.5" text-anchor="start">XVF3800  0x2C</text>
<text class="dtx" x="126" y="48" text-anchor="start">timing-sensitive - see note b</text>
<line class="dim" x1="218" y1="15" x2="244" y2="15" marker-end="url(#arw)"/>
<text class="dtx" x="231" y="13" text-anchor="middle">QT</text>
<path class="obj" d="M245.5,0 H338.5 A1.5,1.5 0 0 1 340,1.5 V28.5 A1.5,1.5 0 0 1 338.5,30 H245.5 A1.5,1.5 0 0 1 244,28.5 V1.5 A1.5,1.5 0 0 1 245.5,0 Z"/>
<text class="lbl" x="248" y="8.5" text-anchor="start">DS3231 RTC</text>
<text class="dtx" x="336" y="8.5" text-anchor="end">0x68</text>
<text class="note" x="248" y="16.5" text-anchor="start">rear wall, by the Flex</text>
<line class="dim" x1="340" y1="15" x2="366" y2="15" marker-end="url(#arw)"/>
<path class="obj" d="M367.5,0 H460.5 A1.5,1.5 0 0 1 462,1.5 V28.5 A1.5,1.5 0 0 1 460.5,30 H367.5 A1.5,1.5 0 0 1 366,28.5 V1.5 A1.5,1.5 0 0 1 367.5,0 Z"/>
<text class="lbl" x="370" y="8.5" text-anchor="start">INA219</text>
<text class="dtx" x="458" y="8.5" text-anchor="end">0x41?</text>
<text class="note" x="370" y="16.5" text-anchor="start">on the UPS 3S board</text>
<text class="dtx" x="370" y="24" text-anchor="start">addr unconfirmed</text>
<line class="dim" x1="462" y1="15" x2="488" y2="15" marker-end="url(#arw)"/>
<path class="obj" d="M489.5,0 H582.5 A1.5,1.5 0 0 1 584,1.5 V28.5 A1.5,1.5 0 0 1 582.5,30 H489.5 A1.5,1.5 0 0 1 488,28.5 V1.5 A1.5,1.5 0 0 1 489.5,0 Z"/>
<text class="lbl" x="492" y="8.5" text-anchor="start">TPA2016 amp</text>
<text class="dtx" x="580" y="8.5" text-anchor="end">0x58</text>
<text class="note" x="492" y="16.5" text-anchor="start">rear wall, above the UPS</text>
<line class="dim" x1="536" y1="30" x2="536" y2="56" marker-end="url(#arw)"/>
<path class="obj" d="M489.5,56 H582.5 A1.5,1.5 0 0 1 584,57.5 V84.5 A1.5,1.5 0 0 1 582.5,86 H489.5 A1.5,1.5 0 0 1 488,84.5 V57.5 A1.5,1.5 0 0 1 489.5,56 Z"/>
<text class="lbl" x="492" y="64.5" text-anchor="start">BH1750 lux</text>
<text class="dtx" x="580" y="64.5" text-anchor="end">0x23</text>
<text class="note" x="492" y="72.5" text-anchor="start">rear wall, light pipe</text>
<line class="dim" x1="488" y1="71" x2="462" y2="71" marker-end="url(#arw)"/>
<path class="obj" d="M367.5,56 H460.5 A1.5,1.5 0 0 1 462,57.5 V84.5 A1.5,1.5 0 0 1 460.5,86 H367.5 A1.5,1.5 0 0 1 366,84.5 V57.5 A1.5,1.5 0 0 1 367.5,56 Z"/>
<text class="lbl" x="370" y="64.5" text-anchor="start">seesaw encoder</text>
<text class="dtx" x="458" y="64.5" text-anchor="end">0x36</text>
<text class="note" x="370" y="72.5" text-anchor="start">crown, under the knob</text>
<line class="dim" x1="366" y1="71" x2="340" y2="71" marker-end="url(#arw)"/>
<path class="hid" d="M245.5,56 H338.5 A1.5,1.5 0 0 1 340,57.5 V84.5 A1.5,1.5 0 0 1 338.5,86 H245.5 A1.5,1.5 0 0 1 244,84.5 V57.5 A1.5,1.5 0 0 1 245.5,56 Z"/>
<text class="lbl" x="248" y="64.5" text-anchor="start">VL53L0X ToF</text>
<text class="dtx" x="336" y="64.5" text-anchor="end">0x29</text>
<text class="note" x="248" y="72.5" text-anchor="start">crown, right of the knob</text>
<text class="dtx" x="248" y="80" text-anchor="start">PLANNED, no entity</text>
<line class="dim" x1="292" y1="86" x2="292" y2="112" marker-end="url(#arw)"/>
<path class="obj" d="M245.5,112 H338.5 A1.5,1.5 0 0 1 340,113.5 V140.5 A1.5,1.5 0 0 1 338.5,142 H245.5 A1.5,1.5 0 0 1 244,140.5 V113.5 A1.5,1.5 0 0 1 245.5,112 Z"/>
<text class="lbl" x="248" y="120.5" text-anchor="start">IS31FL3731 #1</text>
<text class="dtx" x="336" y="120.5" text-anchor="end">0x74</text>
<text class="note" x="248" y="128.5" text-anchor="start">front module, left panel</text>
<line class="dim" x1="340" y1="127" x2="366" y2="127" marker-end="url(#arw)"/>
<path class="obj" d="M367.5,112 H460.5 A1.5,1.5 0 0 1 462,113.5 V140.5 A1.5,1.5 0 0 1 460.5,142 H367.5 A1.5,1.5 0 0 1 366,140.5 V113.5 A1.5,1.5 0 0 1 367.5,112 Z"/>
<text class="lbl" x="370" y="120.5" text-anchor="start">IS31FL3731 #2</text>
<text class="dtx" x="458" y="120.5" text-anchor="end">0x75</text>
<text class="note" x="370" y="128.5" text-anchor="start">front module, right panel</text>
<text class="dtx" x="370" y="136" text-anchor="start">ADDR jumper moved</text>
</g>
<g id="DIRECT-GPIO" transform="translate(60,300)">
<text class="blk" x="0" y="-26" text-anchor="start">DIRECT GPIO</text>
<text class="lbl" x="0" y="-16" text-anchor="start">everything that is not on the I2C bus</text>
<text class="lbl" x="0" y="0" text-anchor="start">GPIO5  / D4</text>
<text class="note" x="58" y="0" text-anchor="start">I2C SDA</text>
<text class="note" x="130" y="0" text-anchor="start">shared bus - every device below</text>
<line class="ext" x1="0" y1="2.4" x2="300" y2="2.4"/>
<text class="lbl" x="0" y="11" text-anchor="start">GPIO6  / D5</text>
<text class="note" x="58" y="11" text-anchor="start">I2C SCL</text>
<text class="note" x="130" y="11" text-anchor="start">shared bus - 100 kHz, 1 ms timeout</text>
<line class="ext" x1="0" y1="13.4" x2="300" y2="13.4"/>
<text class="lbl" x="0" y="22" text-anchor="start">GPIO1  / D0</text>
<text class="note" x="58" y="22" text-anchor="start">SK6812 data</text>
<text class="note" x="130" y="22" text-anchor="start">48 px crescent, front module</text>
<line class="ext" x1="0" y1="24.4" x2="300" y2="24.4"/>
<text class="lbl" x="0" y="33" text-anchor="start">GPIO4  / D3</text>
<text class="note" x="58" y="33" text-anchor="start">touch L + R</text>
<text class="note" x="130" y="33" text-anchor="start">TOUCH4 - BOTH shoulder pads, one net</text>
<line class="ext" x1="0" y1="35.4" x2="300" y2="35.4"/>
<text class="lbl" x="0" y="44" text-anchor="start">GPIO2  / D1</text>
<text class="note" x="58" y="44" text-anchor="start">(reserved)</text>
<text class="note" x="130" y="44" text-anchor="start">TOUCH2 - free, to split the pads later</text>
<line class="ext" x1="0" y1="46.4" x2="300" y2="46.4"/>
<text class="lbl" x="0" y="55" text-anchor="start">GPIO7  / D8</text>
<text class="note" x="58" y="55" text-anchor="start">I2S WS</text>
<text class="note" x="130" y="55" text-anchor="start">ReSpeaker Flex (fixed)</text>
<line class="ext" x1="0" y1="57.4" x2="300" y2="57.4"/>
<text class="lbl" x="0" y="66" text-anchor="start">GPIO8  / D9</text>
<text class="note" x="58" y="66" text-anchor="start">I2S BCLK</text>
<text class="note" x="130" y="66" text-anchor="start">ReSpeaker Flex (fixed)</text>
<line class="ext" x1="0" y1="68.4" x2="300" y2="68.4"/>
<text class="lbl" x="0" y="77" text-anchor="start">GPIO43 / D6</text>
<text class="note" x="58" y="77" text-anchor="start">I2S mic DIN</text>
<text class="note" x="130" y="77" text-anchor="start">ReSpeaker Flex (fixed)</text>
<line class="ext" x1="0" y1="79.4" x2="300" y2="79.4"/>
<text class="lbl" x="0" y="88" text-anchor="start">GPIO44 / D7</text>
<text class="note" x="58" y="88" text-anchor="start">I2S spk DOUT</text>
<text class="note" x="130" y="88" text-anchor="start">ReSpeaker Flex (fixed)</text>
<line class="ext" x1="0" y1="90.4" x2="300" y2="90.4"/>
</g>
<g id="POWER" transform="translate(420,300)">
<text class="blk" x="0" y="-26" text-anchor="start">POWER</text>
<text class="lbl" x="0" y="-16" text-anchor="start">one 5 V / 5 A rail off the UPS</text>
<path class="obj" d="M1.5,0 H82.5 A1.5,1.5 0 0 1 84,1.5 V22.5 A1.5,1.5 0 0 1 82.5,24 H1.5 A1.5,1.5 0 0 1 0,22.5 V1.5 A1.5,1.5 0 0 1 1.5,0 Z"/>
<text class="lbl" x="4" y="8.5" text-anchor="start">DC barrel jack</text>
<text class="note" x="4" y="16.5" text-anchor="start">rear wall, centred</text>
<line class="dim" x1="84" y1="12" x2="110" y2="12" marker-end="url(#arw)"/>
<path class="obj" d="M111.5,0 H192.5 A1.5,1.5 0 0 1 194,1.5 V22.5 A1.5,1.5 0 0 1 192.5,24 H111.5 A1.5,1.5 0 0 1 110,22.5 V1.5 A1.5,1.5 0 0 1 111.5,0 Z"/>
<text class="lbl" x="114" y="8.5" text-anchor="start">UPS 3S</text>
<text class="note" x="114" y="16.5" text-anchor="start">3x 18650, upright</text>
<line class="dim" x1="194" y1="12" x2="220" y2="12" marker-end="url(#arw)"/>
<text class="dtx" x="207" y="10" text-anchor="middle">5V</text>
<path class="obj" d="M221.5,0 H302.5 A1.5,1.5 0 0 1 304,1.5 V22.5 A1.5,1.5 0 0 1 302.5,24 H221.5 A1.5,1.5 0 0 1 220,22.5 V1.5 A1.5,1.5 0 0 1 221.5,0 Z"/>
<text class="lbl" x="224" y="8.5" text-anchor="start">5 V / 5 A rail</text>
<line class="dim" x1="262" y1="24" x2="262" y2="44" marker-end="url(#arw)"/>
<path class="obj" d="M221.5,44 H346.5 A1.5,1.5 0 0 1 348,45.5 V64.5 A1.5,1.5 0 0 1 346.5,66 H221.5 A1.5,1.5 0 0 1 220,64.5 V45.5 A1.5,1.5 0 0 1 221.5,44 Z"/>
<text class="lbl" x="224" y="52.5" text-anchor="start">SK6812 crescent</text>
<text class="dtx" x="344" y="52.5" text-anchor="end">~1.9 A capped</text>
<line class="dim" x1="262" y1="24" x2="262" y2="44"/>
<path class="obj" d="M221.5,70 H346.5 A1.5,1.5 0 0 1 348,71.5 V90.5 A1.5,1.5 0 0 1 346.5,92 H221.5 A1.5,1.5 0 0 1 220,90.5 V71.5 A1.5,1.5 0 0 1 221.5,70 Z"/>
<text class="lbl" x="224" y="78.5" text-anchor="start">TPA2016 + 2x 4R</text>
<text class="dtx" x="344" y="78.5" text-anchor="end">~1.3 A</text>
<line class="dim" x1="262" y1="50" x2="262" y2="70"/>
<path class="obj" d="M221.5,96 H346.5 A1.5,1.5 0 0 1 348,97.5 V116.5 A1.5,1.5 0 0 1 346.5,118 H221.5 A1.5,1.5 0 0 1 220,116.5 V97.5 A1.5,1.5 0 0 1 221.5,96 Z"/>
<text class="lbl" x="224" y="104.5" text-anchor="start">Flex + XIAO + sensors</text>
<text class="dtx" x="344" y="104.5" text-anchor="end">~0.5 A</text>
<line class="dim" x1="262" y1="76" x2="262" y2="96"/>
<text class="note" x="0" y="130" text-anchor="start">budget  ~3.7 A of 5 A  (crescent hard-capped at 65% white in firmware)</text>
</g>
<g id="LOCATIONS" transform="translate(790,300)">
<text class="blk" x="0" y="-26" text-anchor="start">WHERE THEY SIT</text>
<text class="lbl" x="0" y="-16" text-anchor="start">numbers match the chain above</text>
<g transform="scale(0.62)"><path class="obj" d="M0,183.6 V129 A129,129 0 0 1 258,129 V183.6 A6,6 0 0 1 252,189.6 H6 A6,6 0 0 1 0,183.6 Z"/>
<path class="hid" d="M12,129 A117,117 0 0 1 246,129 Z"/>
<path class="hid" d="M88,156.13 H170 A1,1 0 0 1 171,157.13 V178.13 A1,1 0 0 1 170,179.13 H88 A1,1 0 0 1 87,178.13 V157.13 A1,1 0 0 1 88,156.13 Z"/>
<path class="hid" d="M15.95,136.6 H61.95 A2,2 0 0 1 63.95,138.6 V179.6 A2,2 0 0 1 61.95,181.6 H15.95 A2,2 0 0 1 13.95,179.6 V138.6 A2,2 0 0 1 15.95,136.6 Z"/>
<path class="hid" d="M196.05,136.6 H242.05 A2,2 0 0 1 244.05,138.6 V179.6 A2,2 0 0 1 242.05,181.6 H196.05 A2,2 0 0 1 194.05,179.6 V138.6 A2,2 0 0 1 196.05,136.6 Z"/>
<circle class="hid" cx="79.5" cy="143.66" r="1.25"/>
<circle class="hid" cx="112.5" cy="143.66" r="1.25"/>
<circle class="hid" cx="145.5" cy="143.66" r="1.25"/>
<circle class="hid" cx="178.5" cy="143.66" r="1.25"/>
<line class="dim" x1="99" y1="167.63" x2="55" y2="137.63" marker-start="url(#arw)"/><circle class="bal" cx="55" cy="137.63" r="4.6"/><text class="balt" x="55" y="139.23" text-anchor="middle">7</text>
<line class="dim" x1="159" y1="167.63" x2="203" y2="137.63" marker-start="url(#arw)"/><circle class="bal" cx="203" cy="137.63" r="4.6"/><text class="balt" x="203" y="139.23" text-anchor="middle">8</text></g>
<text class="lbl" x="79.98" y="129.552" text-anchor="middle">FRONT (front module)</text>
<g transform="translate(199.96,0) scale(0.62)"><path class="obj" d="M4,0 H60 A4,4 0 0 1 64,4 V185.6 A4,4 0 0 1 60,189.6 H4 A4,4 0 0 1 0,185.6 V4 A4,4 0 0 1 4,0 Z"/>
<rect class="hid" x="37.5" y="92.6" width="24" height="93"/>
<rect class="hid" x="2" y="3.6" width="4" height="182"/>
<line class="dim" x1="61.5" y1="149.6" x2="98" y2="133.6" marker-start="url(#arw)"/><circle class="bal" cx="98" cy="133.6" r="4.6"/><text class="balt" x="98" y="135.2" text-anchor="middle">3</text>
<line class="dim" x1="61.5" y1="90.1" x2="98" y2="104.1" marker-start="url(#arw)"/><circle class="bal" cx="98" cy="104.1" r="4.6"/><text class="balt" x="98" y="105.7" text-anchor="middle">4</text>
<line class="dim" x1="34" y1="3" x2="98" y2="-22" marker-start="url(#arw)"/><circle class="bal" cx="98" cy="-22" r="4.6"/><text class="balt" x="98" y="-20.4" text-anchor="middle">5</text>
<line class="dim" x1="34" y1="3" x2="-30" y2="-22" marker-start="url(#arw)"/><circle class="bal" cx="-30" cy="-22" r="4.6"/><text class="balt" x="-30" y="-20.4" text-anchor="middle">6</text>
<line class="dim" x1="49.5" y1="139.1" x2="-30" y2="139.1" marker-start="url(#arw)"/><circle class="bal" cx="-30" cy="139.1" r="4.6"/><text class="balt" x="-30" y="140.7" text-anchor="middle">2</text>
<line class="dim" x1="50" y1="179.6" x2="-30" y2="165.6" marker-start="url(#arw)"/><circle class="bal" cx="-30" cy="165.6" r="4.6"/><text class="balt" x="-30" y="167.2" text-anchor="middle">1</text></g>
<text class="lbl" x="219.8" y="129.552" text-anchor="middle">RIGHT SIDE</text>
</g>
<g id="CHAIN-LEGEND" transform="translate(790,130)">
<rect class="tb" x="0" y="0" width="99.76" height="83"/>
<text class="lbl" x="5" y="11" text-anchor="start">CHAIN KEY  -  balloons on WHERE THEY SIT</text>
<circle class="bal" cx="9.6" cy="17.46" r="3.6"/>
<text class="dtx" x="9.6" y="18.96" text-anchor="middle">1</text>
<text class="note" x="17" y="18.96" text-anchor="start">DS3231 RTC   0x68   rear wall, by the Flex</text>
<circle class="bal" cx="9.6" cy="25.46" r="3.6"/>
<text class="dtx" x="9.6" y="26.96" text-anchor="middle">2</text>
<text class="note" x="17" y="26.96" text-anchor="start">INA219   0x41?   on the UPS 3S board</text>
<circle class="bal" cx="9.6" cy="33.46" r="3.6"/>
<text class="dtx" x="9.6" y="34.96" text-anchor="middle">3</text>
<text class="note" x="17" y="34.96" text-anchor="start">TPA2016 amp   0x58   rear wall, above the UPS</text>
<circle class="bal" cx="9.6" cy="41.46" r="3.6"/>
<text class="dtx" x="9.6" y="42.96" text-anchor="middle">4</text>
<text class="note" x="17" y="42.96" text-anchor="start">BH1750 lux   0x23   rear wall, light pipe</text>
<circle class="bal" cx="9.6" cy="49.46" r="3.6"/>
<text class="dtx" x="9.6" y="50.96" text-anchor="middle">5</text>
<text class="note" x="17" y="50.96" text-anchor="start">seesaw encoder   0x36   crown, under the knob</text>
<circle class="bal" cx="9.6" cy="57.46" r="3.6"/>
<text class="dtx" x="9.6" y="58.96" text-anchor="middle">6</text>
<text class="note" x="17" y="58.96" text-anchor="start">VL53L0X ToF   0x29   crown, right of the knob</text>
<circle class="bal" cx="9.6" cy="65.46" r="3.6"/>
<text class="dtx" x="9.6" y="66.96" text-anchor="middle">7</text>
<text class="note" x="17" y="66.96" text-anchor="start">IS31FL3731 #1   0x74   front module, left panel</text>
<circle class="bal" cx="9.6" cy="73.46" r="3.6"/>
<text class="dtx" x="9.6" y="74.96" text-anchor="middle">8</text>
<text class="note" x="17" y="74.96" text-anchor="start">IS31FL3731 #2   0x75   front module, right panel</text>
</g>
<g id="NOTES" transform="translate(60,430)">
<text class="lbl" x="0" y="0" text-anchor="start">NOTES  (all from HARDWARE.md - that file is authoritative)</text>
<text class="note" x="0" y="6.6" text-anchor="start">a   ONE shared I2C bus on GPIO5/D4 (SDA) and GPIO6/D5 (SCL). D4/D5 is the tested mapping - do NOT 'correct' it from the schematic.</text>
<text class="note" x="0" y="11.3" text-anchor="start">b   BUS RUNS AT 100 kHz WITH A 1 ms TIMEOUT, deliberately. The STEMMA chain's cable capacitance and pull-ups were starving the</text>
<text class="note" x="0" y="16" text-anchor="start">    timing-sensitive XVF3800; the slow edges tolerate it and the timeout lets the XVF3800 clock-stretch while its firmware boots.</text>
<text class="note" x="0" y="20.7" text-anchor="start">    Chain order on this sheet is chosen to keep the cable SHORT for that reason. If it is still flaky, drop toward 10 kHz.</text>
<text class="note" x="0" y="25.4" text-anchor="start">c   BRIDGE-TIED AMP OUTPUTS. Every TPA2016 output terminal swings; there is no output ground. Do NOT common the two speakers'</text>
<text class="note" x="0" y="30.1" text-anchor="start">    negative leads and do NOT tie any output to GND - either shorts half a bridge and can kill the amp.</text>
<text class="note" x="0" y="34.8" text-anchor="start">d   The TPA2016's AGC is deliberately OFF (compression 1:1). An active compressor downstream of the DAC makes the echo path</text>
<text class="note" x="0" y="39.5" text-anchor="start">    time-varying and breaks the XVF3800's AEC. It has no NVM, so the custom component rewrites its config at every boot.</text>
<text class="note" x="0" y="44.2" text-anchor="start">e   The second matrix needs its ADDR jumper moved off 0x74 (0x75 / 0x76 / 0x77) and matrix_address_2 set to match.</text>
<text class="note" x="0" y="48.9" text-anchor="start">f   VL53L0X is drawn hidden: it is on the bus plan and in the address map but has NO ESPHome entity yet.</text>
<text class="note" x="0" y="53.6" text-anchor="start">g   INA219 address 0x41 is a PLACEHOLDER. Waveshare boards usually sit at 0x40-0x43; confirm against the boot I2C scan, and if the</text>
<text class="note" x="0" y="58.3" text-anchor="start">    readings are nonsense the part may be an INA226 (swap the platform in packages/battery.yaml).</text>
<text class="note" x="0" y="63" text-anchor="start">h   BOTH TOUCH PADS SHARE GPIO4/D3. Self-capacitance sensing measures the whole electrode net, so two pads on one net behave as</text>
<text class="note" x="0" y="67.7" text-anchor="start">    one electrode split in two - touching either half gives the same delta. One binary sensor, one threshold, no OR logic.</text>
<text class="note" x="0" y="72.4" text-anchor="start">    JOIN THE LEADS AT THE MCU, NOT ACROSS THE CROWN. Each lead drops down the inside of its own flank to the floor and they meet</text>
<text class="note" x="0" y="77.1" text-anchor="start">    at the XIAO. Same wire count either way, and it keeps a ~200 mm antenna out of the crown, where the SK6812 data line, the</text>
<text class="note" x="0" y="81.8" text-anchor="start">    I2S lines and the STEMMA chain all run. A wire taken straight across the crown would pick that up straight into the sensor.</text>
<text class="note" x="0" y="86.5" text-anchor="start">    Cost of sharing: baseline capacitance roughly doubles while the finger delta does not, so relative sensitivity drops (still</text>
<text class="note" x="0" y="91.2" text-anchor="start">    usable), and a side-to-side mismatch cannot be trimmed with per-pad thresholds. GPIO2/D1 (TOUCH2) is kept free as the escape</text>
<text class="note" x="0" y="95.9" text-anchor="start">    hatch - splitting to two channels is one wire at the MCU plus a few lines of YAML. Calibrate with esp32_touch: setup_mode: true.</text>
<text class="note" x="0" y="100.6" text-anchor="start">i   HT16K33 7-seg is the OPTIONAL alternative to the matrix. If you fit it, give it a dedicated 3.3 V LDO off the 5 V rail -</text>
<text class="note" x="0" y="105.3" text-anchor="start">    not the XIAO's 3V3 pin - and load the display package instead of matrix, never both.</text>
</g>
<g id="TITLE-BLOCK" transform="translate(936,520)">
<rect class="tb" x="0" y="0" width="238" height="90"/>
<line class="tb" x1="0" y1="26" x2="238" y2="26"/>
<text class="ttl" x="6" y="12" text-anchor="start">SOUND MACHINE - WIRING</text>
<text class="sub" x="6" y="20" text-anchor="start">sensor chain / power / routing</text>
<line class="tb" x1="119" y1="26" x2="119" y2="42"/>
<text class="note" x="6" y="35.92" text-anchor="start">SOURCE HARDWARE.md</text>
<text class="note" x="125" y="35.92" text-anchor="start">BUS</text>
<line class="tb" x1="0" y1="42" x2="238" y2="42"/>
<line class="tb" x1="119" y1="42" x2="119" y2="58"/>
<text class="note" x="6" y="51.92" text-anchor="start">UNITS mm   locations NTS</text>
<text class="note" x="125" y="51.92" text-anchor="start">one I2C bus, 100 kHz, 1 ms timeout</text>
<line class="tb" x1="0" y1="58" x2="238" y2="58"/>
<line class="tb" x1="119" y1="58" x2="119" y2="74"/>
<text class="note" x="6" y="67.92" text-anchor="start">GENERATED BY 3d-print/gen_wiring.py</text>
<text class="note" x="125" y="67.92" text-anchor="start">SHEET 3 of 3</text>
<line class="tb" x1="0" y1="74" x2="238" y2="74"/>
<line class="tb" x1="119" y1="74" x2="119" y2="90"/>
<text class="note" x="6" y="83.92" text-anchor="start">REFERENCE ONLY - not a released drawing</text>
<text class="note" x="125" y="83.92" text-anchor="start">REV A</text>
</g>
</svg>