<svg xmlns="http://www.w3.org/2000/svg" version="1.1" width="1189mm" height="690mm" viewBox="0 0 1189 690"><defs>
<marker id="arw" viewBox="0 0 10 10" refX="10" refY="5" markerWidth="3.4"
        markerHeight="3.4" orient="auto-start-reverse" markerUnits="userSpaceOnUse">
  <path d="M0,1.4 L10,5 L0,8.6 z" fill="#1b1b1b"/>
</marker>
<style>
  text { font-family: "Helvetica Neue", Helvetica, Arial, sans-serif; fill:#1b1b1b; }
  .obj  { fill:none; stroke:#1b1b1b; stroke-width:0.55; }
  .hid  { fill:none; stroke:#7a7a7a; stroke-width:0.35; stroke-dasharray:2.6 1.6; }
  .phan { fill:none; stroke:#9a9a9a; stroke-width:0.32; stroke-dasharray:7 1.6 1.2 1.6; }
  .led  { fill:none; stroke:#9a9a9a; stroke-width:0.3; }
  .ctr  { fill:none; stroke:#b03a3a; stroke-width:0.3;  stroke-dasharray:9 1.8 1.6 1.8; }
  .dim  { fill:none; stroke:#1b1b1b; stroke-width:0.3; }
  .ext  { fill:none; stroke:#1b1b1b; stroke-width:0.25; }
  .traj { fill:none; stroke:#4a6fa5; stroke-width:0.35; stroke-dasharray:5 2; }
  .bal  { fill:#ffffff; stroke:#1b1b1b; stroke-width:0.45; }
  .dtx  { font-size:3.1px; }
  .balt { font-size:4.4px; font-weight:600; }
  .note { font-size:3.4px; }
  .lbl  { font-size:4.6px; font-weight:600; letter-spacing:0.6px; }
  .blk  { font-size:6.4px; font-weight:700; letter-spacing:1.4px; fill:#4a6fa5; }
  .ttl  { font-size:9px;   font-weight:700; letter-spacing:1px; }
  .sub  { font-size:4.4px; fill:#555; }
  .frame{ fill:none; stroke:#1b1b1b; stroke-width:0.5; }
  .tb   { fill:none; stroke:#1b1b1b; stroke-width:0.35; }
</style>
</defs>
<rect x="0" y="0" width="1189" height="690" fill="#ffffff"/>
<rect class="frame" x="15" y="15" width="1159" height="660"/>
<g id="FRONT-MODULE" transform="translate(90,122)">
<text class="blk" x="0" y="-46" text-anchor="start">FRONT MODULE</text>
<text class="lbl" x="0" y="-34" text-anchor="start">from BEHIND (mirrored) - one printed part</text>
<g id="fm-body">
<path class="obj" d="M3.6,151.69 V74.74 A97.4,71.14 0 0 1 198.4,74.74 V151.69 Z"/>
<path class="phan" d="M3.6,151.69 V74.74 A97.4,71.14 0 0 1 198.4,74.74 V151.69 Z"/>
<path class="obj" d="M9.6,74.74 A91.4,65.14 0 0 1 192.4,74.74 Z"/>
<path class="obj" d="M7.6,74.74 A93.4,67.14 0 0 1 194.4,74.74 Z"/>
<rect class="phan" x="57.82" y="105.37" width="86.36" height="27.94"/>
<line class="phan" x1="101" y1="105.37" x2="101" y2="133.31"/>
<path class="hid" d="M61,107.84 H141 A2,2 0 0 1 143,109.84 V128.84 A2,2 0 0 1 141,130.84 H61 A2,2 0 0 1 59,128.84 V109.84 A2,2 0 0 1 61,107.84 Z"/>
<circle class="obj" cx="59.725" cy="107.275" r="0.925"/>
<circle class="obj" cx="99.095" cy="131.405" r="0.925"/>
<circle class="obj" cx="102.905" cy="107.275" r="0.925"/>
<circle class="obj" cx="142.275" cy="131.405" r="0.925"/>
<rect class="obj" x="76.41" y="135.76" width="6" height="2.2"/>
<rect class="obj" x="76.41" y="102.92" width="6" height="2.2"/>
<rect class="obj" x="119.59" y="135.76" width="6" height="2.2"/>
<rect class="obj" x="119.59" y="102.92" width="6" height="2.2"/>
<rect class="obj" x="55.37" y="116.34" width="2.2" height="6"/>
<rect class="obj" x="144.18" y="116.34" width="2.2" height="6"/>
<path class="obj" d="M10.6,94.34 H51.6 A2,2 0 0 1 53.6,96.34 V142.34 A2,2 0 0 1 51.6,144.34 H10.6 A2,2 0 0 1 8.6,142.34 V96.34 A2,2 0 0 1 10.6,94.34 Z"/>
<circle class="hid" cx="31.1" cy="119.34" r="20"/>
<path class="obj" d="M27.1,144.69 H35.1 A1,1 0 0 1 36.1,145.69 V149.69 A1,1 0 0 1 35.1,150.69 H27.1 A1,1 0 0 1 26.1,149.69 V145.69 A1,1 0 0 1 27.1,144.69 Z"/>
<circle class="hid" cx="31.1" cy="147.69" r="1.5"/>
<path class="obj" d="M27.1,87.99 H35.1 A1,1 0 0 1 36.1,88.99 V92.99 A1,1 0 0 1 35.1,93.99 H27.1 A1,1 0 0 1 26.1,92.99 V88.99 A1,1 0 0 1 27.1,87.99 Z"/>
<circle class="hid" cx="31.1" cy="90.99" r="1.5"/>
<path class="obj" d="M150.4,94.34 H191.4 A2,2 0 0 1 193.4,96.34 V142.34 A2,2 0 0 1 191.4,144.34 H150.4 A2,2 0 0 1 148.4,142.34 V96.34 A2,2 0 0 1 150.4,94.34 Z"/>
<circle class="hid" cx="170.9" cy="119.34" r="20"/>
<path class="obj" d="M166.9,144.69 H174.9 A1,1 0 0 1 175.9,145.69 V149.69 A1,1 0 0 1 174.9,150.69 H166.9 A1,1 0 0 1 165.9,149.69 V145.69 A1,1 0 0 1 166.9,144.69 Z"/>
<circle class="hid" cx="170.9" cy="147.69" r="1.5"/>
<path class="obj" d="M166.9,87.99 H174.9 A1,1 0 0 1 175.9,88.99 V92.99 A1,1 0 0 1 174.9,93.99 H166.9 A1,1 0 0 1 165.9,92.99 V88.99 A1,1 0 0 1 166.9,87.99 Z"/>
<circle class="hid" cx="170.9" cy="90.99" r="1.5"/>
<path class="obj" d="M55.95,136.76 H146.05 A1,1 0 0 1 147.05,137.76 V146.69 A1,1 0 0 1 146.05,147.69 H55.95 A1,1 0 0 1 54.95,146.69 V137.76 A1,1 0 0 1 55.95,136.76 Z"/>
<path class="obj" d="M55.95,95.34 H146.05 A1,1 0 0 1 147.05,96.34 V100.92 A1,1 0 0 1 146.05,101.92 H55.95 A1,1 0 0 1 54.95,100.92 V96.34 A1,1 0 0 1 55.95,95.34 Z"/>
<path class="obj" d="M46,78.34 H156 A1,1 0 0 1 157,79.34 V91.34 A1,1 0 0 1 156,92.34 H46 A1,1 0 0 1 45,91.34 V79.34 A1,1 0 0 1 46,78.34 Z"/>
<circle class="hid" cx="51.5" cy="85.34" r="1.25"/>
<circle class="phan" cx="51.5" cy="85.34" r="2.25"/>
<circle class="hid" cx="84.5" cy="85.34" r="1.25"/>
<circle class="phan" cx="84.5" cy="85.34" r="2.25"/>
<circle class="hid" cx="117.5" cy="85.34" r="1.25"/>
<circle class="phan" cx="117.5" cy="85.34" r="2.25"/>
<circle class="hid" cx="150.5" cy="85.34" r="1.25"/>
<circle class="phan" cx="150.5" cy="85.34" r="2.25"/>
</g>
<g id="fm-dims">
<line class="ctr" x1="101" y1="-10" x2="101" y2="161.69"/>
<line class="ext" x1="0" y1="155.69" x2="0" y2="183.69"/><line class="ext" x1="202" y1="155.69" x2="202" y2="183.69"/><line class="dim" x1="0" y1="181.69" x2="202" y2="181.69" marker-start="url(#arw)" marker-end="url(#arw)"/><text class="dtx" x="101" y="180.29" text-anchor="middle">194.8</text>
<line class="ext" x1="71" y1="3.6" x2="-24" y2="3.6"/><line class="ext" x1="71" y1="151.69" x2="-24" y2="151.69"/><line class="dim" x1="-22" y1="3.6" x2="-22" y2="151.69" marker-start="url(#arw)" marker-end="url(#arw)"/><text class="dtx" x="-23.4" y="77.645" text-anchor="middle" transform="rotate(-90 -23.4 77.645)">148.1</text>
<line class="dim" x1="35.192" y1="29.793" x2="17.192" y2="15.793" marker-start="url(#arw)"/><line class="dim" x1="17.192" y1="15.793" x2="11.192" y2="15.793"/><text class="dtx" x="9.992" y="16.893" text-anchor="end">diffuser pocket 91.4x65.1 x 3.2 deep</text>
<line class="dim" x1="61.772" y1="14.314" x2="47.772" y2="-11.686" marker-start="url(#arw)"/><line class="dim" x1="47.772" y1="-11.686" x2="41.772" y2="-11.686"/><text class="dtx" x="40.572" y="-10.586" text-anchor="end">cavity wall 2</text>
<line class="dim" x1="154.4" y1="35.841" x2="198.4" y2="17.841" marker-start="url(#arw)"/><line class="dim" x1="198.4" y1="17.841" x2="204.4" y2="17.841"/><text class="dtx" x="205.6" y="18.941" text-anchor="start">48 px on a 10.4 row pitch, 6 rows - the strip fills the diffuser, no fade band</text>
<line class="dim" x1="79.41" y1="133.31" x2="53.41" y2="175.31" marker-start="url(#arw)"/><line class="dim" x1="53.41" y1="175.31" x2="47.41" y2="175.31"/><text class="dtx" x="46.21" y="176.41" text-anchor="end">2x matrix - 4 posts + 6 clips, see note h</text>
<line class="dim" x1="186.875" y1="103.365" x2="216.875" y2="73.365" marker-start="url(#arw)"/><line class="dim" x1="216.875" y1="73.365" x2="222.875" y2="73.365"/><text class="dtx" x="224.075" y="74.465" text-anchor="start">2x Seeed 45x50x22 - ROTATED 90, nubs top+bottom</text>
<line class="dim" x1="170.9" y1="90.99" x2="202.9" y2="70.99" marker-start="url(#arw)"/><line class="dim" x1="202.9" y1="70.99" x2="208.9" y2="70.99"/><text class="dtx" x="210.1" y="72.09" text-anchor="start">nub post 10x6 on the centreline - see note g</text>
<line class="dim" x1="46" y1="85.34" x2="24" y2="115.34" marker-start="url(#arw)"/><line class="dim" x1="24" y1="115.34" x2="18" y2="115.34"/><text class="dtx" x="16.8" y="116.44" text-anchor="end">mic flex channel 2 deep, 1 gasket land per port</text>
<line class="dim" x1="3.6" y1="111.167" x2="-16.4" y2="77.167" marker-start="url(#arw)"/><line class="dim" x1="-16.4" y1="77.167" x2="-22.4" y2="77.167"/><text class="dtx" x="-23.6" y="78.267" text-anchor="end">4.5 of edge runs in the dome groove</text>
<line class="dim" x1="131" y1="151.69" x2="171" y2="173.69" marker-start="url(#arw)"/><line class="dim" x1="171" y1="173.69" x2="177" y2="173.69"/><text class="dtx" x="178.2" y="174.79" text-anchor="start">bottom edge lands on the bottom plate = the datum</text>
</g>
</g>
<g id="SECTION-AA" transform="translate(400,122)">
<text class="blk" x="0" y="-46" text-anchor="start">SECTION A-A</text>
<text class="lbl" x="0" y="-34" text-anchor="start">on the centreline, front at left</text>
<g id="sec-dome">
<path class="obj" d="M4,0 H60 A4,4 0 0 1 64,4 V151.69 A4,4 0 0 1 60,155.69 H4 A4,4 0 0 1 0,151.69 V4 A4,4 0 0 1 4,0 Z"/>
<path class="obj" d="M4,2.5 H60 A1.5,1.5 0 0 1 61.5,4 V151.69 A1.5,1.5 0 0 1 60,153.19 H4 A1.5,1.5 0 0 1 2.5,151.69 V4 A1.5,1.5 0 0 1 4,2.5 Z"/>
<rect class="obj" x="0" y="0" width="2" height="7.5"/>
<rect class="obj" x="6.4" y="0" width="2.5" height="5.5"/>
</g>
<g id="sec-front-module">
<rect class="obj" x="2" y="3.6" width="4" height="148.09"/>
<rect class="obj" x="6" y="12" width="3" height="62.74"/>
<rect class="hid" x="21.2" y="12" width="2.13" height="62.74"/>
<line class="obj" x1="23.33" y1="12" x2="23.33" y2="74.74"/>
<rect class="hid" x="6" y="105.37" width="10.7" height="27.94"/>
<rect class="obj" x="6" y="79.34" width="2" height="12"/>
</g>
<g id="sec-internals">
<rect class="obj" x="2.8" y="151.69" width="58.4" height="4"/>
<rect class="hid" x="37.5" y="58.69" width="24" height="93"/>
<rect class="hid" x="53.5" y="141.69" width="8" height="20"/>
<rect class="hid" x="38.5" y="63.69" width="20" height="70"/>
<rect class="obj" x="58.5" y="126.69" width="3" height="7"/>
<rect class="obj" x="58.5" y="63.69" width="3" height="7"/>
<rect class="obj" x="49.5" y="142.69" width="12" height="9"/>
<rect class="hid" x="53.5" y="145.69" width="4" height="6"/>
<rect class="hid" x="54" y="146.69" width="3" height="9"/>
</g>
<g id="sec-dims">
<line class="ext" x1="0" y1="0" x2="0" y2="-22"/><line class="ext" x1="64" y1="0" x2="64" y2="-22"/><line class="dim" x1="0" y1="-20" x2="64" y2="-20" marker-start="url(#arw)" marker-end="url(#arw)"/><text class="dtx" x="32" y="-21.4" text-anchor="middle">64</text>
<line class="ext" x1="64" y1="0" x2="88" y2="0"/><line class="ext" x1="64" y1="155.69" x2="88" y2="155.69"/><line class="dim" x1="86" y1="0" x2="86" y2="155.69" marker-start="url(#arw)" marker-end="url(#arw)"/><text class="dtx" x="84.6" y="77.845" text-anchor="middle" transform="rotate(-90 84.6 77.845)">155.7</text>
<line class="ext" x1="2" y1="12" x2="2" y2="2"/><line class="ext" x1="23.33" y1="12" x2="23.33" y2="2"/><line class="dim" x1="2" y1="4" x2="23.33" y2="4" marker-start="url(#arw)" marker-end="url(#arw)"/><text class="dtx" x="12.665" y="2.6" text-anchor="middle">21.3 front module</text>
<line class="dim" x1="9.2" y1="40.233" x2="21.2" y2="40.233" marker-start="url(#arw)" marker-end="url(#arw)"/><text class="dtx" x="15.2" y="38.833" text-anchor="middle">12 air</text>
<line class="dim" x1="23.33" y1="55.918" x2="53.33" y2="35.918" marker-start="url(#arw)"/><line class="dim" x1="53.33" y1="35.918" x2="59.33" y2="35.918"/><text class="dtx" x="60.53" y="37.018" text-anchor="start">clear of the UPS by 14.2</text>
<line class="dim" x1="37.5" y1="58.69" x2="63.5" y2="36.69" marker-start="url(#arw)"/><line class="dim" x1="63.5" y1="36.69" x2="69.5" y2="36.69"/><text class="dtx" x="70.7" y="37.79" text-anchor="start">UPS 3S board 60 x 93, STANDING</text>
<line class="dim" x1="61.5" y1="151.69" x2="91.5" y2="177.69" marker-start="url(#arw)"/><line class="dim" x1="91.5" y1="177.69" x2="97.5" y2="177.69"/><text class="dtx" x="98.7" y="178.79" text-anchor="start">TPA2016 FLUSH on the rear wall</text>
<line class="dim" x1="49.5" y1="142.69" x2="23.5" y2="168.69" marker-start="url(#arw)"/><line class="dim" x1="23.5" y1="168.69" x2="17.5" y2="168.69"/><text class="dtx" x="16.3" y="169.79" text-anchor="end">wall LUG 12x14x9</text>
<line class="dim" x1="38.5" y1="63.69" x2="74.5" y2="39.69" marker-start="url(#arw)"/><line class="dim" x1="74.5" y1="39.69" x2="80.5" y2="39.69"/><text class="dtx" x="81.7" y="40.79" text-anchor="start">ReSpeaker Flex 52 x 70 x 20 deep at the XIAO</text>
<line class="dim" x1="58.5" y1="90.29" x2="88.5" y2="78.29" marker-start="url(#arw)"/><line class="dim" x1="88.5" y1="78.29" x2="94.5" y2="78.29"/><text class="dtx" x="95.7" y="79.39" text-anchor="start">vertical, on 3 standoffs (110 wide over its connectors)</text>
</g>
</g>
<g id="BOTTOM-PLATE" transform="translate(600,132)">
<text class="blk" x="0" y="-36" text-anchor="start">BOTTOM PLATE</text>
<text class="lbl" x="0" y="-26" text-anchor="start">from above - the chassis: Flex + UPS + 6 fixings</text>
<g id="bp-body">
<path class="obj" d="M2.5,0 H193.9 A2.5,2.5 0 0 1 196.4,2.5 V55.9 A2.5,2.5 0 0 1 193.9,58.4 H2.5 A2.5,2.5 0 0 1 0,55.9 V2.5 A2.5,2.5 0 0 1 2.5,0 Z"/>
<rect class="hid" x="5.8" y="1.2" width="45" height="22"/>
<rect class="hid" x="145.6" y="1.2" width="45" height="22"/>
<rect class="hid" x="55.02" y="1.2" width="86.36" height="10.7"/>
<rect class="hid" x="117.2" y="34.7" width="60" height="24"/>
<rect class="hid" x="64.2" y="21.2" width="26" height="20"/>
<circle class="obj" cx="5.7" cy="33.2" r="1.7"/>
<circle class="obj" cx="5.7" cy="33.2" r="3"/>
<circle class="obj" cx="190.7" cy="33.2" r="1.7"/>
<circle class="obj" cx="190.7" cy="33.2" r="3"/>
<circle class="obj" cx="5.7" cy="51.2" r="1.7"/>
<circle class="obj" cx="5.7" cy="51.2" r="3"/>
<circle class="obj" cx="190.7" cy="51.2" r="1.7"/>
<circle class="obj" cx="190.7" cy="51.2" r="3"/>
<circle class="obj" cx="42.2" cy="52.7" r="1.7"/>
<circle class="obj" cx="42.2" cy="52.7" r="3"/>
<circle class="obj" cx="79.2" cy="52.7" r="1.7"/>
<circle class="obj" cx="79.2" cy="52.7" r="3"/>
<circle class="phan" cx="16" cy="16" r="6"/>
<circle class="phan" cx="16" cy="42.4" r="6"/>
<circle class="phan" cx="180.4" cy="16" r="6"/>
<circle class="phan" cx="180.4" cy="42.4" r="6"/>
</g>
<g id="bp-dims">
<line class="ext" x1="0" y1="0" x2="0" y2="-14"/><line class="ext" x1="196.4" y1="0" x2="196.4" y2="-14"/><line class="dim" x1="0" y1="-12" x2="196.4" y2="-12" marker-start="url(#arw)" marker-end="url(#arw)"/><text class="dtx" x="98.2" y="-13.4" text-anchor="middle">196.4</text>
<line class="ext" x1="0" y1="0" x2="-16" y2="0"/><line class="ext" x1="0" y1="58.4" x2="-16" y2="58.4"/><line class="dim" x1="-14" y1="0" x2="-14" y2="58.4" marker-start="url(#arw)" marker-end="url(#arw)"/><text class="dtx" x="-15.4" y="29.2" text-anchor="middle" transform="rotate(-90 -15.4 29.2)">58.4</text>
<text class="note" x="98.2" y="90.4" text-anchor="middle">Flex and amp are NOT on the floor - both mount on the rear wall. The floor carries the UPS only.</text>
<line class="dim" x1="98.2" y1="34.7" x2="68.2" y2="20.7" marker-start="url(#arw)"/><line class="dim" x1="68.2" y1="20.7" x2="62.2" y2="20.7"/><text class="dtx" x="61" y="21.8" text-anchor="end">UPS 3S 60 x 24 footprint, board STANDS 93 tall</text>
<line class="dim" x1="8.7" y1="33.2" x2="28.7" y2="77.2" marker-start="url(#arw)"/><line class="dim" x1="28.7" y1="77.2" x2="34.7" y2="77.2"/><text class="dtx" x="35.9" y="78.3" text-anchor="start">6x Ø3.4 thru, Ø6 c'bore 2 deep</text>
<line class="dim" x1="16" y1="48.4" x2="-2" y2="70.4" marker-start="url(#arw)"/><line class="dim" x1="-2" y1="70.4" x2="-8" y2="70.4"/><text class="dtx" x="-9.2" y="71.5" text-anchor="end">4x Ø12 feet</text>
<text class="note" x="98.2" y="84.4" text-anchor="middle">dashed = what sits on it   phantom = what hangs over it</text>
</g>
</g>
<g id="DOME-UNDERSIDE" transform="translate(600,268)">
<text class="blk" x="0" y="-36" text-anchor="start">DOME UNDERSIDE</text>
<text class="lbl" x="0" y="-26" text-anchor="start">looking up into the dome</text>
<g id="du-body">
<path class="obj" d="M5,0 H197 A5,5 0 0 1 202,5 V59 A5,5 0 0 1 197,64 H5 A5,5 0 0 1 0,59 V5 A5,5 0 0 1 5,0 Z"/>
<path class="obj" d="M5,2.5 H197 A2.5,2.5 0 0 1 199.5,5 V59 A2.5,2.5 0 0 1 197,61.5 H5 A2.5,2.5 0 0 1 2.5,59 V5 A2.5,2.5 0 0 1 5,2.5 Z"/>
<path class="hid" d="M6.5,5.5 H195.5 A1,1 0 0 1 196.5,6.5 V57.5 A1,1 0 0 1 195.5,58.5 H6.5 A1,1 0 0 1 5.5,57.5 V6.5 A1,1 0 0 1 6.5,5.5 Z"/>
<rect class="obj" x="2.5" y="2" width="197" height="4.4"/>
<path class="obj" d="M3.5,29 H13.5 A1,1 0 0 1 14.5,30 V42 A1,1 0 0 1 13.5,43 H3.5 A1,1 0 0 1 2.5,42 V30 A1,1 0 0 1 3.5,29 Z"/>
<circle class="hid" cx="8.5" cy="36" r="2"/>
<path class="obj" d="M188.5,29 H198.5 A1,1 0 0 1 199.5,30 V42 A1,1 0 0 1 198.5,43 H188.5 A1,1 0 0 1 187.5,42 V30 A1,1 0 0 1 188.5,29 Z"/>
<circle class="hid" cx="193.5" cy="36" r="2"/>
<path class="obj" d="M3.5,47 H13.5 A1,1 0 0 1 14.5,48 V60 A1,1 0 0 1 13.5,61 H3.5 A1,1 0 0 1 2.5,60 V48 A1,1 0 0 1 3.5,47 Z"/>
<circle class="hid" cx="8.5" cy="54" r="2"/>
<path class="obj" d="M188.5,47 H198.5 A1,1 0 0 1 199.5,48 V60 A1,1 0 0 1 198.5,61 H188.5 A1,1 0 0 1 187.5,60 V48 A1,1 0 0 1 188.5,47 Z"/>
<circle class="hid" cx="193.5" cy="54" r="2"/>
<path class="obj" d="M39,49.5 H51 A1,1 0 0 1 52,50.5 V60.5 A1,1 0 0 1 51,61.5 H39 A1,1 0 0 1 38,60.5 V50.5 A1,1 0 0 1 39,49.5 Z"/>
<circle class="hid" cx="45" cy="55.5" r="2"/>
<path class="obj" d="M76,49.5 H88 A1,1 0 0 1 89,50.5 V60.5 A1,1 0 0 1 88,61.5 H76 A1,1 0 0 1 75,60.5 V50.5 A1,1 0 0 1 76,49.5 Z"/>
<circle class="hid" cx="82" cy="55.5" r="2"/>
</g>
<g id="du-dims">
<line class="ext" x1="0" y1="0" x2="0" y2="-14"/><line class="ext" x1="202" y1="0" x2="202" y2="-14"/><line class="dim" x1="0" y1="-12" x2="202" y2="-12" marker-start="url(#arw)" marker-end="url(#arw)"/><text class="dtx" x="101" y="-13.4" text-anchor="middle">202</text>
<line class="ext" x1="0" y1="0" x2="-16" y2="0"/><line class="ext" x1="0" y1="64" x2="-16" y2="64"/><line class="dim" x1="-14" y1="0" x2="-14" y2="64" marker-start="url(#arw)" marker-end="url(#arw)"/><text class="dtx" x="-15.4" y="32" text-anchor="middle" transform="rotate(-90 -15.4 32)">64</text>
<line class="dim" x1="5.5" y1="32" x2="-14.5" y2="56" marker-start="url(#arw)"/><line class="dim" x1="-14.5" y1="56" x2="-20.5" y2="56"/><text class="dtx" x="-21.7" y="57.1" text-anchor="end">3 continuous seating ledge, all round</text>
<line class="dim" x1="101" y1="6.4" x2="101" y2="36.4" marker-start="url(#arw)"/><line class="dim" x1="101" y1="36.4" x2="107" y2="36.4"/><text class="dtx" x="108.2" y="37.5" text-anchor="start">front groove 4.4 wide - module slides UP</text>
<text class="dtx" x="8.5" y="37.2" text-anchor="middle">1</text>
<text class="dtx" x="193.5" y="37.2" text-anchor="middle">2</text>
<text class="dtx" x="8.5" y="55.2" text-anchor="middle">3</text>
<text class="dtx" x="193.5" y="55.2" text-anchor="middle">4</text>
<text class="dtx" x="45" y="56.7" text-anchor="middle">5</text>
<text class="dtx" x="82" y="56.7" text-anchor="middle">6</text>
<line class="dim" x1="193.5" y1="36" x2="215.5" y2="10" marker-start="url(#arw)"/><line class="dim" x1="215.5" y1="10" x2="221.5" y2="10"/><text class="dtx" x="222.7" y="11.1" text-anchor="start">6x wall lug 12 x 14 x 9, Ø4 for M3 heat-set</text>
<text class="note" x="101" y="94" text-anchor="middle">no lug on the FRONT edge - the speakers own both corners and the matrix owns the middle. It does not need one:</text>
<text class="note" x="101" y="99" text-anchor="middle">the plate's front edge is captured between the seating ledge and the front module's bottom edge.</text>
</g>
</g>
<g id="BOSS-LEGEND" transform="translate(836,300)">
<rect class="tb" x="0" y="0" width="107.86" height="67"/>
<text class="lbl" x="5" y="11" text-anchor="start">FIXING LUGS  M3 into heat-set inserts</text>
<circle class="bal" cx="9.6" cy="17.46" r="3.6"/>
<text class="dtx" x="9.6" y="18.96" text-anchor="middle">1</text>
<text class="note" x="17" y="18.96" text-anchor="start">x 8.5, depth 36   -   3 clear of speaker L</text>
<circle class="bal" cx="9.6" cy="25.46" r="3.6"/>
<text class="dtx" x="9.6" y="26.96" text-anchor="middle">2</text>
<text class="note" x="17" y="26.96" text-anchor="start">x 193.5, depth 36   -   3 clear of speaker R</text>
<circle class="bal" cx="9.6" cy="33.46" r="3.6"/>
<text class="dtx" x="9.6" y="34.96" text-anchor="middle">3</text>
<text class="note" x="17" y="34.96" text-anchor="start">x 8.5, depth 54   -   21 clear of speaker L</text>
<circle class="bal" cx="9.6" cy="41.46" r="3.6"/>
<text class="dtx" x="9.6" y="42.96" text-anchor="middle">4</text>
<text class="note" x="17" y="42.96" text-anchor="start">x 193.5, depth 54   -   7.5 clear of UPS 3S (upright)</text>
<circle class="bal" cx="9.6" cy="49.46" r="3.6"/>
<text class="dtx" x="9.6" y="50.96" text-anchor="middle">5</text>
<text class="note" x="17" y="50.96" text-anchor="start">x 45, depth 55.5   -   15 clear of TPA2016 (floor)</text>
<circle class="bal" cx="9.6" cy="57.46" r="3.6"/>
<text class="dtx" x="9.6" y="58.96" text-anchor="middle">6</text>
<text class="note" x="17" y="58.96" text-anchor="start">x 82, depth 55.5   -   5.5 clear of TPA2016 (floor)</text>
</g>
<g id="DETAIL-B" transform="translate(600,432)">
<text class="blk" x="0" y="-20" text-anchor="start">DETAIL B   slot joint   5:1</text>
<g id="det-b">
<rect class="obj" x="0" y="0" width="12.5" height="70"/>
<rect class="obj" x="12.5" y="0" width="25" height="10"/>
<rect class="obj" x="12.5" y="32" width="15" height="12.5"/>
<rect class="obj" x="15" y="10" width="85" height="20"/>
<line class="phan" x1="100" y1="10" x2="100" y2="30"/>
<line class="dim" x1="6.25" y1="56" x2="-9.75" y2="70" marker-start="url(#arw)"/><line class="dim" x1="-9.75" y1="70" x2="-15.75" y2="70"/><text class="dtx" x="-16.95" y="71.1" text-anchor="end">dome wall 2.5</text>
<line class="dim" x1="27.5" y1="0" x2="49.5" y2="-26" marker-start="url(#arw)"/><line class="dim" x1="49.5" y1="-26" x2="55.5" y2="-26"/><text class="dtx" x="56.7" y="-24.9" text-anchor="start">lip 5 x 2 covers the edge</text>
<line class="dim" x1="21.5" y1="44.5" x2="47.5" y2="64.5" marker-start="url(#arw)"/><line class="dim" x1="47.5" y1="64.5" x2="53.5" y2="64.5"/><text class="dtx" x="54.7" y="65.6" text-anchor="start">rib 3 x 2.5</text>
<line class="dim" x1="67.5" y1="30" x2="87.5" y2="64" marker-start="url(#arw)"/><line class="dim" x1="87.5" y1="64" x2="93.5" y2="64"/><text class="dtx" x="94.7" y="65.1" text-anchor="start">front module, 4 thk</text>
<line class="dim" x1="120" y1="10" x2="120" y2="32" marker-start="url(#arw)" marker-end="url(#arw)"/><text class="dtx" x="118.6" y="21" text-anchor="middle" transform="rotate(-90 118.6 21)">4.4 groove</text>
<line class="ext" x1="12.5" y1="0" x2="12.5" y2="-12"/><line class="ext" x1="37.5" y1="0" x2="37.5" y2="-12"/><line class="dim" x1="12.5" y1="-10" x2="37.5" y2="-10" marker-start="url(#arw)" marker-end="url(#arw)"/><text class="dtx" x="25" y="-11.4" text-anchor="middle">5</text>
<text class="note" x="0" y="86" text-anchor="start">module slides UP out of the page; 0.5 clearance on the wall</text>
</g>
</g>
<g id="DETAIL-C" transform="translate(836,432)">
<text class="blk" x="0" y="-62" text-anchor="start">DETAIL C   diffusion stack   5:1</text>
<g id="det-c">
<rect class="obj" x="0" y="0" width="20" height="85"/>
<rect class="obj" x="20" y="0" width="15" height="85"/>
<line class="hid" x1="36" y1="0" x2="36" y2="85"/>
<rect class="hid" x="96" y="0" width="10.65" height="85"/>
<rect class="obj" x="0" y="85" width="94.15" height="10"/>
<rect class="obj" x="94.15" y="0" width="12.5" height="95"/>
<line class="dim" x1="10" y1="0" x2="10" y2="-20" marker-start="url(#arw)"/><line class="dim" x1="10" y1="-20" x2="16" y2="-20"/><text class="dtx" x="17.2" y="-18.9" text-anchor="start">facade 4</text>
<line class="dim" x1="27.5" y1="0" x2="27.5" y2="-30" marker-start="url(#arw)"/><line class="dim" x1="27.5" y1="-30" x2="33.5" y2="-30"/><text class="dtx" x="34.7" y="-28.9" text-anchor="start">opal acrylic 3 (?), in a 3.2 pocket</text>
<line class="dim" x1="66" y1="0" x2="66" y2="-40" marker-start="url(#arw)"/><line class="dim" x1="66" y1="-40" x2="72" y2="-40"/><text class="dtx" x="73.2" y="-38.9" text-anchor="start">air gap 12 (?)  TUNE ON A TEST PRINT</text>
<line class="dim" x1="101.325" y1="0" x2="101.325" y2="-50" marker-start="url(#arw)"/><line class="dim" x1="101.325" y1="-50" x2="107.325" y2="-50"/><text class="dtx" x="108.525" y="-48.9" text-anchor="start">SK6812 strip 2.1 MEASURED</text>
<line class="dim" x1="100.4" y1="0" x2="100.4" y2="-60" marker-start="url(#arw)"/><line class="dim" x1="100.4" y1="-60" x2="106.4" y2="-60"/><text class="dtx" x="107.6" y="-58.9" text-anchor="start">LED CARRIER 2.5 - part 6, 6x M2.5 into wall pads</text>
<line class="dim" x1="37.66" y1="95" x2="25.66" y2="117" marker-start="url(#arw)"/><line class="dim" x1="25.66" y1="117" x2="19.66" y2="117"/><text class="dtx" x="18.46" y="118.1" text-anchor="end">cavity wall 2, follows the arc; runs to 18.8 so the carrier seats on it</text>
<line class="dim" x1="0" y1="129" x2="106.65" y2="129" marker-start="url(#arw)" marker-end="url(#arw)"/><text class="dtx" x="53.325" y="127.6" text-anchor="middle">21.3 total</text>
</g>
</g>
<g id="NOTES" transform="translate(90,372)">
<text class="lbl" x="0" y="0" text-anchor="start">ASSEMBLY</text>
<text class="note" x="0" y="6.6" text-anchor="start">1   Front module slides UP into the dome's side grooves from below. Nothing retains it at this point.</text>
<text class="note" x="0" y="11.3" text-anchor="start">2   It seats against the lip; 4.5 mm of its edge is captured all round, with 0.5 sliding clearance.</text>
<text class="note" x="0" y="16" text-anchor="start">3   Bottom plate goes on. Its top face is the module's datum - the module's bottom edge lands on it and can no longer drop.</text>
<text class="note" x="0" y="20.7" text-anchor="start">4   Six M3 screws pull the bottom plate up into the dome bosses. No fastener touches the facade.</text>
<text class="lbl" x="0" y="30.7" text-anchor="start">NOTES</text>
<text class="note" x="0" y="37.3" text-anchor="start">a   ONE FRONT PIECE, YES - but the diffuser stays separate. You cannot print an even diffuser; the printed part is the frame and</text>
<text class="note" x="0" y="42" text-anchor="start">    the cavity, and the Glowforge-cut opal acrylic drops into a pocket from behind. Everything that must stay in register with</text>
<text class="note" x="0" y="46.7" text-anchor="start">    everything else - matrix aperture, grilles, mic ports, diffuser - is now on ONE part, so there are no stacked tolerances.</text>
<text class="note" x="0" y="51.4" text-anchor="start">b   The facade went 3 -> 4 mm. Two 45x50 sealed boxes on an unsupported 3 mm plate will flex and buzz; it is a baffle now, not a cover.</text>
<text class="note" x="0" y="56.1" text-anchor="start">    Ribs run from each baffle ring out to the perimeter for the same reason.</text>
<text class="note" x="0" y="60.8" text-anchor="start">c   AIR GAP IS A GUESS. 12 mm is ~0.7x the 16.5 mm LED pitch, the usual starting point for not seeing 48 dots through opal.</text>
<text class="note" x="0" y="65.5" text-anchor="start">    Test-print the crescent corner before committing - this is the one number most likely to need changing.</text>
<text class="note" x="0" y="70.2" text-anchor="start">d   FIXINGS ARE WALL LUGS, NOT FLOOR BOSSES. Each lug is a pad that projects inward off the dome wall with a blind heat-set hole; the</text>
<text class="note" x="0" y="74.9" text-anchor="start">    screw comes up through the bottom plate and grabs it. Lugs live at the perimeter where the plate needs support anyway, and they</text>
<text class="note" x="0" y="79.6" text-anchor="start">    cost no floor area - which matters, because the floor is fully spoken for. Clearances per lug are in the key beside the plan.</text>
<text class="note" x="0" y="84.3" text-anchor="start">e   NO LUG ON THE FRONT EDGE. The speaker bodies own both front corners and the matrix owns the middle, so there is nowhere to put one.</text>
<text class="note" x="0" y="89" text-anchor="start">    It does not need one: the plate's front edge is captured between the seating ledge and the front module's bottom edge.</text>
<text class="note" x="0" y="93.7" text-anchor="start">f   TPA2016 moved to the REAR WALL at y=4. There is no floor left for it, and the speaker leads are shortest from there.</text>
<text class="note" x="0" y="98.4" text-anchor="start">    Bridge-tied outputs: do NOT common the two speakers' negatives (HARDWARE.md).</text>
<text class="note" x="0" y="103.1" text-anchor="start">g   SPEAKERS HANG ON NUBS, TOP AND BOTTOM, not on a baffle bolt pattern. The bodies are ROTATED 90 deg, so the two nubs -- one centred on each 50 mm face -- point UP and DOWN.</text>
<text class="note" x="0" y="107.8" text-anchor="start">    The module carries a POST above and below each body, on its vertical CENTRELINE, 10 x 6, standing 7 proud of the back face, with an M3 front-to-back into it.</text>
<text class="note" x="0" y="112.5" text-anchor="start">    THE FLANKS CARRY NOTHING. Two screws on one vertical line fix x, y and rotation between them, so there are no seat rings and no side ribs -- the width chain budgets</text>
<text class="note" x="0" y="117.2" text-anchor="start">    SPK_FLANK 1 mm per flank as pure clearance and it butts straight onto the dome's rib keep-out, so anything there jams the module on assembly.</text>
<text class="note" x="0" y="121.9" text-anchor="start">    NUB PROJECTION IS A GUESS (4 mm). Rotated, it now costs HEIGHT, not width: 6 mm at each end of the body. SPK_NUB_H (6) sets the post WIDTH,</text>
<text class="note" x="0" y="126.6" text-anchor="start">    which is what keeps it clear of the mic array by 9.9 mm and lets the array sit 3 mm above the body instead of above the post. Measure both before you print.</text>
<text class="note" x="0" y="131.3" text-anchor="start">h   THE TWO MATRICES ARE ONLY LOOSELY SOLDERED TOGETHER, so the frame cannot treat them as one part. Each board is located by its OWN two posts through its</text>
<text class="note" x="0" y="136" text-anchor="start">    own Ø2 diagonal holes, seats on two pads in the clear margin above and below its LED field, and the pair is clamped by SIX clips - two on</text>
<text class="note" x="0" y="140.7" text-anchor="start">    each long edge and one at each end. There is no tray and no pocket: a pocket would locate the PAIR, and the pair is exactly the thing that is not rigid.</text>
<text class="note" x="0" y="145.4" text-anchor="start">    The clock aperture is ONE OPEN 84 x 23 rectangle - no per-pixel holes. Through a 4 mm facade a per-pixel tunnel would kill the viewing angle.</text>
</g>
<g id="TITLE-BLOCK" transform="translate(936,570)">
<rect class="tb" x="0" y="0" width="238" height="90"/>
<line class="tb" x1="0" y1="26" x2="238" y2="26"/>
<text class="ttl" x="6" y="12" text-anchor="start">SOUND MACHINE - INTERNALS</text>
<text class="sub" x="6" y="20" text-anchor="start">front module / fixings / chassis</text>
<line class="tb" x1="119" y1="26" x2="119" y2="42"/>
<text class="note" x="6" y="35.92" text-anchor="start">PROJECTION third angle</text>
<text class="note" x="125" y="35.92" text-anchor="start">ENVELOPE</text>
<line class="tb" x1="0" y1="42" x2="238" y2="42"/>
<line class="tb" x1="119" y1="42" x2="119" y2="58"/>
<text class="note" x="6" y="51.92" text-anchor="start">UNITS mm   SCALE 1:1 (details 5:1)</text>
<text class="note" x="125" y="51.92" text-anchor="start">202 W x 64 D x 155.7 H</text>
<line class="tb" x1="0" y1="58" x2="238" y2="58"/>
<line class="tb" x1="119" y1="58" x2="119" y2="74"/>
<text class="note" x="6" y="67.92" text-anchor="start">GENERATED BY 3d-print/gen_internals.py</text>
<text class="note" x="125" y="67.92" text-anchor="start">SHEET 2 of 3</text>
<line class="tb" x1="0" y1="74" x2="238" y2="74"/>
<line class="tb" x1="119" y1="74" x2="119" y2="90"/>
<text class="note" x="6" y="83.92" text-anchor="start">REFERENCE ONLY - not a released drawing</text>
<text class="note" x="125" y="83.92" text-anchor="start">REV A</text>
</g>
</svg>